<svg width="47" height="47" viewBox="0 0 47 47" fill="none" xmlns="http://www.w3.org/2000/svg">
<rect x="4.21875" y="4" width="39.4125" height="39.4125" rx="19.7062" fill="#0ABAB5" fill-opacity="0.2"/>
<rect x="4.21875" y="4" width="39.4125" height="39.4125" rx="19.7062" stroke="#0ABAB5" stroke-opacity="0.1" stroke-width="6.56875"/>
<g clip-path="url(#clip0_117_33583)">
<path d="M31.1837 17.6379C30.7643 17.2183 30.2664 16.8855 29.7183 16.6584C29.1703 16.4313 28.5829 16.3145 27.9897 16.3145C27.3964 16.3145 26.809 16.4313 26.261 16.6584C25.7129 16.8855 25.215 17.2183 24.7956 17.6379L23.9252 18.5083L23.0549 17.6379C22.2078 16.7908 21.0588 16.3149 19.8608 16.3149C18.6628 16.3149 17.5139 16.7908 16.6668 17.6379C15.8197 18.485 15.3438 19.634 15.3438 20.832C15.3437 22.03 15.8197 23.1789 16.6668 24.026L17.5371 24.8964L23.9252 31.2845L30.3133 24.8964L31.1837 24.026C31.6033 23.6066 31.9361 23.1087 32.1632 22.5607C32.3903 22.0126 32.5072 21.4252 32.5072 20.832C32.5072 20.2387 32.3903 19.6513 32.1632 19.1033C31.9361 18.5552 31.6033 18.0573 31.1837 17.6379V17.6379Z" stroke="black" stroke-width="1.64219" stroke-linecap="round" stroke-linejoin="round"/>
</g>
<defs>
<clipPath id="clip0_117_33583">
<rect width="19.7062" height="19.7062" fill="white" transform="translate(14.0723 13.8535)"/>
</clipPath>
</defs>
</svg>
