<svg width="36" height="36" viewBox="0 0 36 36" fill="none" xmlns="http://www.w3.org/2000/svg">
<path d="M18.635 26.3379L18.5 26.4687L18.3515 26.3379C11.939 20.7008 7.7 16.9733 7.7 13.1935C7.7 10.5777 9.725 8.6158 12.425 8.6158C14.504 8.6158 16.529 9.92371 17.2445 11.7025H19.7555C20.471 9.92371 22.496 8.6158 24.575 8.6158C27.275 8.6158 29.3 10.5777 29.3 13.1935C29.3 16.9733 25.061 20.7008 18.635 26.3379ZM24.575 6C22.226 6 19.9715 7.0594 18.5 8.72044C17.0285 7.0594 14.774 6 12.425 6C8.267 6 5 9.15204 5 13.1935C5 18.1243 9.59 22.1657 16.5425 28.2736L18.5 30L20.4575 28.2736C27.41 22.1657 32 18.1243 32 13.1935C32 9.15204 28.733 6 24.575 6Z" fill="#0ABAB5"/>
</svg>
