<svg width="49" height="49" viewBox="0 0 49 49" fill="none" xmlns="http://www.w3.org/2000/svg">
<rect x="4.82031" y="4.88086" width="39.41" height="39.41" rx="19.705" fill="#0ABAB5" fill-opacity="0.2"/>
<rect x="4.82031" y="4.88086" width="39.41" height="39.41" rx="19.705" stroke="#0ABAB5" stroke-opacity="0.1" stroke-width="8"/>
<g clip-path="url(#clip0_117_33610)">
<path d="M23.3335 25.833C23.6914 26.3114 24.148 26.7073 24.6723 26.9938C25.1966 27.2802 25.7764 27.4506 26.3724 27.4933C26.9683 27.5359 27.5665 27.45 28.1263 27.2411C28.6861 27.0323 29.1944 26.7055 29.6168 26.283L32.1168 23.783C32.8758 22.9971 33.2958 21.9446 33.2863 20.8521C33.2768 19.7597 32.8386 18.7146 32.0661 17.9421C31.2935 17.1695 30.2485 16.7313 29.156 16.7218C28.0635 16.7123 27.011 17.1323 26.2252 17.8913L24.7918 19.3163M26.6668 24.1663C26.309 23.6879 25.8524 23.292 25.328 23.0055C24.8037 22.7191 24.2239 22.5487 23.628 22.506C23.032 22.4634 22.4338 22.5493 21.874 22.7582C21.3142 22.967 20.8059 23.2938 20.3835 23.7163L17.8835 26.2163C17.1245 27.0022 16.7045 28.0547 16.714 29.1472C16.7235 30.2396 17.1617 31.2847 17.9343 32.0572C18.7068 32.8298 19.7518 33.268 20.8443 33.2775C21.9368 33.2869 22.9893 32.867 23.7752 32.108L25.2002 30.683" stroke="black" stroke-width="1.66667" stroke-linecap="round" stroke-linejoin="round"/>
</g>
<defs>
<clipPath id="clip0_117_33610">
<rect width="20" height="20" fill="white" transform="translate(15 15)"/>
</clipPath>
</defs>
</svg>
