<svg width="110" height="57" viewBox="0 0 110 57" fill="none" xmlns="http://www.w3.org/2000/svg">
<g clip-path="url(#clip0_315_8832)">
<path d="M71.0434 9.08735C74.2192 8.72853 77.0806 9.05249 80.2804 9.38055C81.0974 9.4653 81.7308 9.45642 82.1807 9.3539C82.9916 9.17141 83.2579 8.36972 83.4902 7.64594C83.6411 7.17572 83.7632 7.18392 83.8567 7.67054C84.0516 8.69163 84.2471 9.79063 84.4434 10.9675C84.9733 14.1333 85.508 17.2964 86.0473 20.4567C86.0713 20.5988 86.0439 20.7273 85.9652 20.8422C85.9552 20.8563 85.9418 20.8674 85.9263 20.8745C85.9108 20.8816 85.8937 20.8843 85.8768 20.8825C85.8599 20.8806 85.8438 20.8742 85.8301 20.8638C85.8165 20.8535 85.8057 20.8397 85.799 20.8237C84.5962 17.9053 82.7647 15.328 80.3044 13.0917C79.402 12.2729 78.3288 11.5006 77.0846 10.7748C75.99 10.1365 74.7885 9.72843 73.4803 9.55073C71.8424 9.33134 70.0623 9.81728 69.1932 11.2895C68.6219 12.2572 68.4623 13.292 68.7146 14.3937C69.1572 16.3252 70.5168 17.0982 72.2248 17.7645C74.4595 18.6359 76.6941 19.1916 78.9328 19.8375C80.237 20.2147 81.4838 20.7513 82.6733 21.447C82.6837 21.4528 82.6925 21.4611 82.6992 21.4712C82.7058 21.4812 82.71 21.4928 82.7113 21.5048C82.7127 21.5169 82.7112 21.5291 82.7071 21.5404C82.7029 21.5518 82.6961 21.5619 82.6873 21.57C82.6512 21.6015 82.5998 21.6172 82.5331 21.6172C75.0976 21.5625 69.1572 21.5523 64.7119 21.5864C64.4476 21.5885 64.2353 21.57 64.1032 21.3158C63.7507 20.646 63.5178 19.9673 63.4043 19.2798C62.9178 16.3313 63.5065 13.2414 65.7752 11.3018C67.2289 10.0579 68.985 9.31973 71.0434 9.08735Z" fill="#0ABAB5"/>
<path d="M47.031 12.3036C47.031 11.992 46.9409 11.9619 46.7606 12.2134C44.5407 15.2944 42.4308 18.3078 40.4311 21.2535C40.3613 21.3565 40.2681 21.4406 40.1596 21.4985C40.0511 21.5563 39.9306 21.5863 39.8084 21.5857C36.7701 21.5706 33.9948 21.5747 31.4825 21.598C31.1381 21.6021 30.8037 21.5672 30.5874 21.2515C29.2885 19.3391 27.9937 17.3735 26.7028 15.3546C26.2703 14.6766 25.8237 14.0307 25.3632 13.417C25.3325 13.376 25.2931 13.3466 25.2451 13.3288C25.161 13.2974 25.1196 13.3281 25.1209 13.4211L25.231 21.3827C25.2314 21.4189 25.2244 21.4549 25.2106 21.4882C25.1967 21.5216 25.1762 21.5516 25.1505 21.5765C25.1247 21.6013 25.0942 21.6204 25.0608 21.6326C25.0275 21.6448 24.992 21.6497 24.9567 21.6472L24.8346 21.639C24.7542 21.6327 24.6792 21.5953 24.6249 21.5343C24.5705 21.4734 24.541 21.3934 24.5422 21.3109C24.5649 19.4533 24.5536 17.8041 24.5082 16.3634C24.4788 15.3915 24.352 14.3369 24.1277 13.1996C23.8487 11.7753 23.2487 10.8185 22.3276 10.3291C21.7602 10.0298 20.9613 9.80695 19.9307 9.66069C19.9216 9.65927 19.9128 9.6559 19.905 9.65078C19.8972 9.64567 19.8905 9.63892 19.8854 9.631C19.8803 9.62307 19.8769 9.61413 19.8754 9.60476C19.8739 9.59539 19.8743 9.58581 19.8767 9.57662L19.8947 9.50486C19.9034 9.47254 19.9222 9.44402 19.9483 9.42366C19.9743 9.4033 20.0061 9.39222 20.0389 9.39209L32.3375 9.51306C32.443 9.51437 32.5464 9.54267 32.6381 9.59535C32.7298 9.64803 32.8069 9.72339 32.8621 9.81447L39.6562 20.9788C39.6721 21.0049 39.694 21.0266 39.7201 21.042C39.7462 21.0574 39.7756 21.066 39.8058 21.067C39.8361 21.068 39.8661 21.0614 39.8935 21.0478C39.9208 21.0342 39.9445 21.014 39.9626 20.989C41.989 18.1349 44.0341 15.1796 46.0979 12.1232C46.6225 11.344 47.1851 10.5998 47.6717 9.79396C47.7972 9.58619 48.0201 9.48299 48.3405 9.48436C52.7604 9.51579 56.3988 9.47889 59.2555 9.37364C59.4384 9.3668 59.6012 9.41943 59.7441 9.53152C59.7556 9.54015 59.7644 9.552 59.7695 9.56565C59.7746 9.5793 59.7757 9.59416 59.7728 9.60845C59.7698 9.62274 59.7629 9.63586 59.7528 9.64621C59.7428 9.65657 59.73 9.66373 59.716 9.66684C59.2134 9.78166 58.6728 9.76116 58.2022 9.94569C57.2558 10.3175 56.6658 10.9996 56.4321 11.992C56.1518 13.1784 55.9896 14.4565 55.9456 15.8262C55.8882 17.6168 55.8761 19.4 55.9095 21.1756C55.9149 21.438 55.7894 21.57 55.5331 21.5713C52.9901 21.5864 50.4424 21.5857 47.89 21.5693C47.6831 21.5679 47.4795 21.5597 47.2793 21.5447C47.2139 21.5395 47.1527 21.5093 47.1079 21.46C47.063 21.4107 47.0377 21.3458 47.037 21.2781L47.031 12.3036Z" fill="#0ABAB5"/>
<path d="M36.4396 23.8018C36.6088 23.7573 36.7195 23.6154 36.6868 23.4849C36.6541 23.3543 36.4903 23.2846 36.3211 23.3291C36.1518 23.3736 36.0412 23.5155 36.0739 23.646C36.1066 23.7765 36.2704 23.8463 36.4396 23.8018Z" fill="#0ABAB5"/>
<path d="M29.3442 25.365L29.3602 28.295C29.3608 28.3275 29.3531 28.3596 29.338 28.388C29.3229 28.4164 29.3009 28.4402 29.2741 28.457C29.1833 28.5144 29.0959 28.5001 29.0118 28.4139C28.9782 28.3783 28.959 28.3315 28.9577 28.2827C28.927 26.8283 28.9023 25.4423 28.8836 24.1246C28.8796 23.9072 28.9143 23.6974 28.9877 23.4951C29.0017 23.4559 29.0263 23.4217 29.0586 23.3963C29.0909 23.371 29.1296 23.3556 29.1701 23.3519C29.2107 23.3483 29.2514 23.3565 29.2876 23.3757C29.3237 23.3949 29.3537 23.4242 29.3742 23.4602L31.3465 26.9602C31.3613 26.986 31.3824 27.0074 31.4078 27.0223C31.4331 27.0372 31.4617 27.045 31.4907 27.045C31.5197 27.045 31.5482 27.0372 31.5731 27.0223C31.5981 27.0074 31.6187 26.986 31.6329 26.9602C32.1428 26.0499 32.6728 25.0698 33.2228 24.02C33.3389 23.7972 33.4844 23.6167 33.6593 23.4787C33.6917 23.4532 33.7306 23.4378 33.7713 23.4342C33.812 23.4306 33.8528 23.439 33.889 23.4584C33.9252 23.4778 33.9552 23.5074 33.9756 23.5437C33.9959 23.5799 34.0056 23.6214 34.0037 23.6632C33.9396 25.1668 33.9329 26.7039 33.9837 28.2745C33.985 28.3285 33.9657 28.3813 33.9296 28.4221C33.8015 28.5698 33.6853 28.5705 33.5812 28.4242C33.559 28.3934 33.5465 28.3563 33.5452 28.3176C33.5171 27.0846 33.5318 25.8988 33.5892 24.7602C33.6132 24.2722 33.5118 24.2435 33.2848 24.6741L31.745 27.604C31.7196 27.6519 31.6823 27.6921 31.6369 27.7205C31.5916 27.749 31.5398 27.7648 31.4868 27.7662C31.4337 27.7677 31.3814 27.7548 31.3349 27.7288C31.2885 27.7029 31.2497 27.6648 31.2224 27.6184C30.7432 26.8146 30.294 26.0171 29.8748 25.2256C29.517 24.5517 29.3402 24.5982 29.3442 25.365Z" fill="#0ABAB5"/>
<path d="M40.8156 28.4116C39.8397 28.6289 38.9654 28.4669 38.1924 27.9256C38.1661 27.9069 38.1467 27.8799 38.1372 27.849C38.1278 27.8181 38.1289 27.7851 38.1404 27.7555L38.1724 27.6652C38.2151 27.5545 38.2899 27.5231 38.3967 27.5709C39.0081 27.8484 39.5921 28.0036 40.1488 28.0364C40.8476 28.0774 41.4443 27.5832 41.2501 26.841C41.2314 26.7658 41.1913 26.7063 41.1299 26.6626C40.8763 26.4781 40.5966 26.3509 40.2909 26.2812C39.5581 26.1131 38.0903 25.7789 38.2665 24.6901C38.5148 23.1688 40.2909 23.2282 41.3622 23.7019C41.4263 23.7299 41.4803 23.7775 41.5166 23.8378C41.5529 23.8981 41.5696 23.9681 41.5645 24.0381C41.5591 24.0969 41.4997 24.1324 41.3862 24.1447C41.355 24.1488 41.3229 24.1431 41.2941 24.1283C40.5012 23.7224 39.7737 23.7053 39.1115 24.0771C38.8312 24.2356 38.7077 24.5077 38.7411 24.8931C38.7478 24.9751 38.7798 25.0442 38.8372 25.1002C39.3979 25.6477 40.2229 25.6969 40.9397 25.9286C42.1852 26.3304 42.0791 28.1266 40.8156 28.4116Z" fill="#0ABAB5"/>
<path d="M70.8936 24.1702C70.5972 24.4018 70.5632 24.9431 70.8556 25.2076C71.6285 25.9109 73.3946 25.5931 73.6369 26.8767C73.9352 28.4616 72.057 28.6359 71.0318 28.3837C70.9009 28.3509 70.7741 28.3071 70.6513 28.2525C70.136 28.0214 69.9518 27.8109 70.0987 27.6209C70.1294 27.5799 70.1681 27.569 70.2148 27.5881C70.937 27.8902 71.5404 28.0454 72.0249 28.0536C72.5636 28.0638 73.2804 27.6927 73.1803 27.0243C73.0181 25.9376 70.4891 26.4543 70.2148 25.0908C69.8444 23.2331 72.041 23.2003 73.1443 23.6473C73.176 23.6595 73.2052 23.6776 73.2304 23.7006C73.4787 23.9234 73.4954 24.0813 73.2804 24.1743C73.2564 24.1846 73.2305 24.1898 73.2043 24.1894C73.1781 24.189 73.1522 24.1832 73.1283 24.1722C72.3934 23.8216 71.5964 23.6227 70.8936 24.1702Z" fill="#0ABAB5"/>
<path d="M75.6089 25.0366C75.8064 25.2553 76.0407 25.4056 76.3117 25.4876C76.7816 25.6284 77.2555 25.7808 77.7334 25.9449C78.3701 26.1636 78.6792 26.575 78.6605 27.1792C78.6445 27.7246 78.1639 28.2351 77.6353 28.3807C76.7008 28.6404 75.8171 28.4675 74.9841 27.862C74.9537 27.84 74.9307 27.8087 74.9185 27.7727C74.9063 27.7367 74.9055 27.6976 74.916 27.661C74.9534 27.538 75.0342 27.5004 75.1583 27.5483C75.9433 27.8538 77.0205 28.2925 77.7694 27.7348C78.1919 27.4211 78.286 26.7999 77.7534 26.5292C77.5038 26.4021 77.2481 26.3153 76.9865 26.2688C76.2877 26.1479 74.9601 25.6886 75.0762 24.7167C75.2765 23.0477 77.1867 23.2466 78.3461 23.7387C78.3675 23.7481 78.3868 23.762 78.4026 23.7795C78.4185 23.7969 78.4306 23.8175 78.4381 23.84C78.4457 23.8624 78.4485 23.8861 78.4465 23.9097C78.4444 23.9332 78.4375 23.956 78.4262 23.9765L78.3802 24.0626C78.3667 24.0877 78.3448 24.107 78.3184 24.1172C78.292 24.1273 78.2628 24.1276 78.236 24.118C77.3269 23.7838 75.699 23.4291 75.5408 24.8213C75.5358 24.8598 75.5393 24.8991 75.5511 24.9364C75.5629 24.9736 75.5826 25.0078 75.6089 25.0366Z" fill="#0ABAB5"/>
<path d="M44.0595 25.8734C44.0342 26.5472 44.0188 27.2054 44.0135 27.8479C44.0132 27.8672 44.0168 27.8863 44.0239 27.9042C44.031 27.9221 44.0416 27.9384 44.055 27.9521C44.0684 27.9659 44.0844 27.9768 44.102 27.9842C44.1196 27.9917 44.1386 27.9955 44.1577 27.9955L46.8849 28.0098C46.973 28.0098 47.0311 28.0529 47.0591 28.139L47.0851 28.2169C47.1172 28.3126 47.0838 28.3646 46.985 28.3728C46.0306 28.4575 44.9893 28.489 43.8613 28.4671C43.6624 28.463 43.5636 28.3598 43.565 28.1575L43.595 23.6302C43.595 23.6048 43.6 23.5795 43.6097 23.556C43.6193 23.5325 43.6335 23.5112 43.6514 23.4932C43.6693 23.4753 43.6905 23.4612 43.7138 23.4516C43.7371 23.442 43.7621 23.4372 43.7872 23.4375L46.8849 23.4724C47.0064 23.4737 47.0317 23.5257 46.961 23.6282L46.9209 23.6836C46.8649 23.7642 46.7888 23.8086 46.6927 23.8168C45.9064 23.8865 45.0781 23.8893 44.2077 23.825C44.0622 23.8155 43.9961 23.8845 44.0095 24.0321C44.0642 24.6527 44.0809 25.2664 44.0595 25.8734Z" fill="#0ABAB5"/>
<path d="M50.2069 25.3981C50.2164 25.4136 50.2294 25.4264 50.2448 25.4357C50.2602 25.4449 50.2776 25.4503 50.2954 25.4513C50.3132 25.4523 50.331 25.4489 50.3473 25.4415C50.3636 25.434 50.3779 25.4227 50.3891 25.4084C50.8309 24.8398 51.2548 24.2684 51.6606 23.6943C51.7954 23.5043 51.9696 23.412 52.1832 23.4175C52.1962 23.4181 52.2089 23.4223 52.2198 23.4296C52.2307 23.4368 52.2396 23.4469 52.2453 23.4587C52.2511 23.4704 52.2535 23.4835 52.2525 23.4965C52.2514 23.5095 52.2469 23.5218 52.2393 23.5323L50.6994 25.6831C50.6676 25.7271 50.6504 25.7805 50.6504 25.8355C50.6504 25.8905 50.6676 25.9441 50.6994 25.9886L52.3894 28.3322C52.4034 28.3525 52.41 28.377 52.4082 28.4017C52.4064 28.4264 52.3962 28.4497 52.3794 28.4676C52.3127 28.5373 52.2373 28.555 52.1532 28.5209C52.0143 28.4648 51.8995 28.378 51.8088 28.2605C51.3068 27.6166 50.8349 26.9585 50.3931 26.286C50.341 26.208 50.2883 26.2074 50.2349 26.2839L48.8332 28.2707C48.7545 28.3814 48.6483 28.4382 48.5148 28.4409L48.3827 28.4429C48.2599 28.4457 48.2345 28.3965 48.3066 28.2953L49.9746 25.9681C49.9933 25.9424 50.0035 25.9113 50.0039 25.8793C50.0042 25.8472 49.9947 25.8159 49.9766 25.7898L48.3767 23.5467C48.3684 23.535 48.3632 23.5214 48.3616 23.5071C48.3601 23.4928 48.3622 23.4782 48.3679 23.4648C48.3735 23.4515 48.3824 23.4397 48.3938 23.4307C48.4051 23.4217 48.4186 23.4157 48.4327 23.4134C48.4701 23.4079 48.5075 23.4106 48.5449 23.4216C48.6744 23.4585 48.7845 23.5261 48.8753 23.6246C49.3652 24.1536 49.809 24.7448 50.2069 25.3981Z" fill="#0ABAB5"/>
<path d="M54.5278 26.849C54.5079 26.8481 54.4881 26.8515 54.4696 26.859C54.4511 26.8665 54.4344 26.8779 54.4208 26.8925C54.4071 26.9071 54.3967 26.9245 54.3903 26.9436C54.3839 26.9626 54.3816 26.9828 54.3837 27.0028C54.4264 27.4662 54.4157 27.8954 54.3516 28.2905C54.3316 28.4121 54.2622 28.4791 54.1434 28.4914C54.1194 28.4928 54.0967 28.4893 54.0753 28.4811C53.9271 28.4265 53.8524 28.3185 53.851 28.1572L53.833 23.7263C53.8327 23.6877 53.84 23.6495 53.8543 23.6138C53.8686 23.5781 53.8896 23.5457 53.9163 23.5184C53.9429 23.4911 53.9746 23.4695 54.0095 23.4549C54.0443 23.4402 54.0817 23.4328 54.1194 23.4331C54.7161 23.4399 55.3255 23.4488 55.9475 23.4598C56.9727 23.4782 57.7837 24.2143 57.6956 25.3113C57.5574 26.9905 55.7473 26.9249 54.5278 26.849ZM54.3616 24.2143L54.3837 26.0678C54.3842 26.1139 54.3936 26.1594 54.4113 26.2017C54.429 26.244 54.4546 26.2824 54.4868 26.3146C54.519 26.3467 54.557 26.3721 54.5987 26.3892C54.6405 26.4064 54.6851 26.4149 54.7301 26.4144L55.8794 26.4C56.0586 26.3977 56.2355 26.3627 56.4002 26.2971C56.5649 26.2316 56.7141 26.1366 56.8392 26.0178C56.9643 25.899 57.063 25.7586 57.1296 25.6047C57.1961 25.4507 57.2292 25.2862 57.227 25.1206V25.0878C57.2227 24.7534 57.0749 24.4347 56.8162 24.2017C56.5574 23.9687 56.209 23.8404 55.8474 23.8452L54.698 23.8596C54.6076 23.8612 54.5214 23.8994 54.4584 23.9659C54.3953 24.0324 54.3606 24.1217 54.3616 24.2143Z" fill="#0ABAB5"/>
<path d="M62.4295 26.6507C62.4068 26.6646 62.387 26.6832 62.3715 26.7052C62.3559 26.7273 62.3449 26.7524 62.3391 26.779C62.3333 26.8057 62.3329 26.8333 62.3377 26.8602C62.3426 26.8871 62.3527 26.9128 62.3675 26.9357L63.2625 28.2972C63.3426 28.4202 63.3106 28.4851 63.1664 28.492C63.1224 28.4933 63.079 28.4872 63.0363 28.4735C62.8881 28.4216 62.7659 28.3334 62.6698 28.209C62.4015 27.8605 62.1439 27.4928 61.8969 27.1059C61.8498 27.0331 61.7865 26.9729 61.7123 26.9304C61.6381 26.888 61.5551 26.8645 61.4704 26.8619L60.1709 26.825C60.125 26.8239 60.0805 26.8414 60.0472 26.8736C60.0138 26.9059 59.9942 26.9503 59.9926 26.9972L59.9486 28.3033C59.9468 28.3483 59.9313 28.3916 59.9044 28.4273C59.8775 28.4629 59.8405 28.4891 59.7984 28.5022C59.6529 28.546 59.5601 28.4974 59.5201 28.3566C59.4856 28.2425 59.468 28.1243 59.468 28.006C59.4573 26.6118 59.4607 25.1724 59.478 23.6879C59.4787 23.6317 59.4996 23.5777 59.5366 23.5364C59.5736 23.4952 59.624 23.4695 59.6783 23.4644C60.8336 23.3558 63.2425 23.202 63.2886 24.9797C63.3086 25.7233 63.0222 26.2803 62.4295 26.6507ZM59.8985 24.0673L59.9546 26.2612C59.9554 26.2876 59.9612 26.3135 59.9718 26.3376C59.9824 26.3617 59.9975 26.3834 60.0163 26.4015C60.0351 26.4196 60.0572 26.4337 60.0813 26.443C60.1054 26.4524 60.1311 26.4568 60.1568 26.4559L61.3643 26.4231C61.7617 26.4125 62.1396 26.2724 62.4148 26.0336C62.6901 25.7949 62.8401 25.477 62.832 25.1499L62.828 25.0227C62.8238 24.8607 62.7809 24.7012 62.7016 24.5535C62.6223 24.4058 62.5083 24.2728 62.3661 24.162C62.2238 24.0511 62.0561 23.9647 61.8725 23.9077C61.689 23.8506 61.4931 23.824 61.2962 23.8294L60.0908 23.8622C60.065 23.8628 60.0396 23.8685 60.016 23.8791C59.9923 23.8897 59.971 23.9049 59.9532 23.924C59.9353 23.943 59.9213 23.9655 59.9119 23.99C59.9025 24.0146 59.898 24.0409 59.8985 24.0673Z" fill="#0ABAB5"/>
<path d="M65.6511 27.8471C65.6511 27.966 65.7099 28.0255 65.8274 28.0255L68.6247 28.0357C68.6466 28.0359 68.6679 28.0433 68.6852 28.057C68.7026 28.0708 68.7151 28.0899 68.7208 28.1116L68.7368 28.1751C68.743 28.1999 68.7439 28.2258 68.7394 28.2509C68.735 28.2761 68.7253 28.3 68.7111 28.321C68.6969 28.342 68.6784 28.3596 68.6569 28.3726C68.6354 28.3857 68.6115 28.3939 68.5866 28.3966C67.48 28.5169 66.3987 28.5278 65.3428 28.4294C65.2991 28.4253 65.2585 28.4046 65.2292 28.3715C65.1999 28.3385 65.1839 28.2954 65.1846 28.251L65.2106 23.6377C65.2109 23.6118 65.2161 23.5863 65.226 23.5625C65.2359 23.5387 65.2503 23.5172 65.2683 23.4991C65.2864 23.481 65.3077 23.4667 65.3311 23.4571C65.3546 23.4474 65.3796 23.4426 65.4049 23.4429L68.4244 23.4818C68.5192 23.4832 68.572 23.5331 68.5826 23.6315L68.5906 23.7094C68.5923 23.7282 68.5902 23.7472 68.5844 23.7651C68.5786 23.7829 68.5693 23.7994 68.5571 23.8133C68.5448 23.8272 68.5299 23.8382 68.5132 23.8458C68.4966 23.8533 68.4786 23.8572 68.4605 23.8571L65.8113 23.8591C65.6939 23.8591 65.6351 23.9199 65.6351 24.0416L65.6511 27.8471Z" fill="#0ABAB5"/>
<path d="M36.3961 24.6758H36.3881C36.2798 24.6758 36.1919 24.7657 36.1919 24.8767V28.268C36.1919 28.379 36.2798 28.469 36.3881 28.469H36.3961C36.5045 28.469 36.5924 28.379 36.5924 28.268V24.8767C36.5924 24.7657 36.5045 24.6758 36.3961 24.6758Z" fill="#0ABAB5"/>
<path d="M46.4331 25.7108L44.3229 25.7485C44.2311 25.7501 44.158 25.8276 44.1596 25.9216L44.1602 25.9544C44.1618 26.0484 44.2375 26.1232 44.3293 26.1216L46.4395 26.0839C46.5312 26.0822 46.6043 26.0047 46.6027 25.9108L46.6022 25.878C46.6006 25.784 46.5249 25.7091 46.4331 25.7108Z" fill="#0ABAB5"/>
<path d="M68.1196 25.7258L66.0091 25.7107C65.914 25.71 65.8364 25.7884 65.8357 25.8858L65.8356 25.9063C65.8349 26.0037 65.9115 26.0832 66.0066 26.0839L68.117 26.099C68.2121 26.0996 68.2898 26.0212 68.2904 25.9239L68.2906 25.9033C68.2912 25.806 68.2147 25.7265 68.1196 25.7258Z" fill="#0ABAB5"/>
<path d="M57.8697 36.9339C58.3943 37.139 59.0004 37.2873 59.6879 37.3789C59.7219 37.3833 59.7534 37.4001 59.7765 37.4264C59.7996 37.4527 59.8129 37.4868 59.814 37.5224L59.816 37.5819C59.8174 37.6174 59.8013 37.6352 59.768 37.6352C57.7075 37.6413 55.6911 37.5224 53.6527 37.5531C51.1697 37.5901 48.6187 37.547 46.0997 37.6413C45.176 37.6755 44.2081 37.6823 43.1963 37.6618C43.1871 37.6614 43.1782 37.6588 43.1702 37.6542C43.1623 37.6496 43.1555 37.6432 43.1504 37.6354C43.1453 37.6276 43.1421 37.6187 43.141 37.6094C43.14 37.6001 43.141 37.5906 43.1442 37.5819L43.1642 37.5306C43.1794 37.4917 43.2048 37.4577 43.2376 37.4324C43.2704 37.4071 43.3094 37.3914 43.3505 37.3871C44.7988 37.2244 45.7199 36.7767 46.1137 36.0441C46.3807 35.5479 46.5549 35.092 46.6364 34.6765C46.9047 33.3178 47.0362 31.8353 47.0308 30.2292C47.0308 30.1936 47.044 30.1593 47.0678 30.1334C47.0917 30.1075 47.1243 30.0919 47.159 30.0898C47.5034 30.0652 47.8318 30.0522 48.1441 30.0508C50.5737 30.0358 53.0867 30.0296 55.6831 30.0324C55.846 30.0324 55.9281 30.1158 55.9294 30.2825C55.9401 31.5756 56.0496 32.8926 56.2578 34.2336C56.41 35.2178 56.8705 36.5444 57.8697 36.9339Z" fill="#0ABAB5"/>
<path d="M65.4847 39.3968C65.4633 39.4747 65.436 39.5513 65.4026 39.6264C65.2931 39.8793 65.2024 39.8718 65.1303 39.6039C64.8379 38.4967 64.6858 37.3628 64.4995 36.2454C64.1792 34.3084 63.8501 32.3374 63.5124 30.3321C63.4803 30.1421 63.5584 30.0443 63.7466 30.0389C64.3654 30.0184 65.3986 29.8584 65.8311 30.3669C68.3181 33.2969 71.7461 36.3971 75.4345 37.3362C76.09 37.5043 76.8716 37.5644 77.7793 37.5166C78.8873 37.4606 79.9506 37.0607 80.9691 36.3171C81.9903 35.5728 82.6071 34.4861 82.525 33.1329C82.4529 31.971 82.0264 31.0155 81.2454 30.2665C81.0853 30.112 81.1153 30.0348 81.3356 30.0348L87.5549 30.0368C87.8954 30.0368 88.0242 30.2056 87.9414 30.5433C87.4048 32.703 86.2434 34.411 84.4573 35.6672C83.2185 36.5365 81.8074 37.1776 80.2242 37.5904C79.4533 37.7914 78.7365 38.023 77.9475 38.0702C76.0866 38.1837 74.436 38.1679 72.9956 38.023C71.2803 37.8494 69.5616 37.6998 67.8395 37.574C67.1627 37.5248 66.2496 37.6376 65.8952 38.3409C65.7163 38.6949 65.5795 39.0469 65.4847 39.3968Z" fill="#0ABAB5"/>
<path d="M32.5097 37.6105C31.9103 37.6733 31.3897 37.6973 30.9478 37.6822C27.1446 37.5619 23.5463 37.5681 20.153 37.7007C20.0448 37.7061 19.9394 37.6925 19.8366 37.6597C19.5349 37.5653 19.5382 37.4854 19.8466 37.4198C20.201 37.3439 20.5194 37.309 20.8378 37.1163C21.7509 36.5654 22.4577 35.8519 22.9583 34.9757C23.7619 33.5678 24.2879 32.0403 24.5362 30.3931C24.5482 30.3193 24.5816 30.2592 24.6363 30.2127C24.9246 29.9667 25.5193 29.8867 25.6555 30.3521C26.3136 32.628 27.487 34.5041 29.1757 35.9804C30.0928 36.7814 31.2562 37.2441 32.6658 37.3685C32.6723 37.3689 32.6785 37.371 32.684 37.3744C32.6895 37.3778 32.6941 37.3825 32.6975 37.3881C32.7008 37.3938 32.7028 37.4002 32.7032 37.4067C32.7036 37.4133 32.7025 37.4199 32.6999 37.4259L32.6779 37.4833C32.6634 37.5181 32.6401 37.5483 32.6105 37.5706C32.5809 37.593 32.5461 37.6067 32.5097 37.6105Z" fill="#0ABAB5"/>
<path d="M59.9981 42.1541L59.5776 42.1518C59.4803 42.1513 59.401 42.2317 59.4004 42.3313L59.3993 42.5527C59.3988 42.6524 59.4773 42.7336 59.5746 42.7341L59.9951 42.7364C60.0924 42.7369 60.1717 42.6565 60.1722 42.5569L60.1734 42.3355C60.1739 42.2358 60.0954 42.1546 59.9981 42.1541Z" fill="#E30387"/>
<path d="M88.6331 42.1417L88.2566 42.1404C88.1405 42.14 88.0461 42.236 88.0457 42.3549L88.0451 42.5067C88.0447 42.6256 88.1385 42.7223 88.2547 42.7227L88.6311 42.724C88.7472 42.7245 88.8417 42.6284 88.8421 42.5095L88.8426 42.3578C88.843 42.2389 88.7492 42.1422 88.6331 42.1417Z" fill="#E30387"/>
<path d="M96.4853 42.1596L95.9488 42.1481C95.8813 42.1467 95.8255 42.2015 95.8241 42.2706L95.8178 42.578C95.8164 42.6471 95.8699 42.7043 95.9374 42.7057L96.4739 42.7172C96.5413 42.7187 96.5972 42.6638 96.5986 42.5948L96.6049 42.2873C96.6063 42.2182 96.5527 42.1611 96.4853 42.1596Z" fill="#E30387"/>
<path d="M54.2383 42.1834L53.8707 42.1571C53.7703 42.1499 53.6833 42.2274 53.6763 42.3302L53.6628 42.5265C53.6558 42.6293 53.7315 42.7185 53.8319 42.7257L54.1994 42.752C54.2998 42.7592 54.3869 42.6817 54.3939 42.5789L54.4073 42.3825C54.4144 42.2797 54.3387 42.1906 54.2383 42.1834Z" fill="#E30387"/>
<path d="M53.6167 47.0642L53.6247 43.1623C53.6246 43.1216 53.6387 43.0821 53.6643 43.0509C53.69 43.0198 53.7256 42.9989 53.7649 42.9921L54.2495 42.9101C54.2734 42.906 54.298 42.9072 54.3215 42.9137C54.345 42.9202 54.3668 42.9319 54.3854 42.9479C54.4041 42.9638 54.4191 42.9838 54.4295 43.0063C54.4399 43.0288 54.4454 43.0534 54.4457 43.0783L54.4797 47.0519C54.4803 47.0972 54.4633 47.1409 54.4326 47.1736C54.4019 47.2062 54.3598 47.2251 54.3155 47.2262L53.7889 47.2364C53.7665 47.237 53.7442 47.2329 53.7233 47.2245C53.7024 47.2161 53.6834 47.2035 53.6674 47.1874C53.6513 47.1714 53.6386 47.1522 53.6299 47.1311C53.6212 47.1099 53.6167 47.0872 53.6167 47.0642Z" fill="#E30387"/>
<path d="M9.24015 45.1203C9.22546 44.8825 9.18408 44.8777 9.116 45.106C9.02122 45.4204 8.91643 45.7286 8.80162 46.0307C8.77493 46.1004 8.72553 46.138 8.65345 46.1435C8.61935 46.1458 8.5854 46.1369 8.55658 46.1181C8.52776 46.0993 8.50557 46.0715 8.49326 46.0389C8.39047 45.76 8.27033 45.4867 8.13283 45.2187C8.00067 44.9631 7.9366 44.9802 7.9406 45.27L7.96663 47.0108C7.9693 47.1693 7.89321 47.25 7.73836 47.2527L7.34389 47.2609C7.31726 47.2615 7.29079 47.2566 7.26603 47.2465C7.24128 47.2364 7.21873 47.2214 7.19971 47.2023C7.18069 47.1832 7.16558 47.1604 7.15526 47.1353C7.14495 47.1102 7.13964 47.0832 7.13965 47.0559L7.14165 43.1622C7.14151 43.1214 7.15491 43.0817 7.17964 43.0497C7.20437 43.0177 7.23898 42.9952 7.27781 42.9859C7.45803 42.9435 7.63424 42.9435 7.80644 42.9859C7.89188 43.0064 7.95128 43.0583 7.98465 43.1417L8.51328 44.4478C8.59872 44.6597 8.68282 44.659 8.76558 44.4458L9.27419 43.1233C9.28709 43.0893 9.30819 43.0593 9.3355 43.036C9.36282 43.0127 9.39546 42.9969 9.43037 42.99C9.60925 42.9572 9.80015 42.9565 10.0031 42.9879C10.0427 42.9943 10.0788 43.0149 10.1048 43.0461C10.1309 43.0773 10.1452 43.1171 10.1452 43.1581L10.1492 46.9903C10.1494 47.0282 10.1418 47.0658 10.1269 47.1006C10.1121 47.1354 10.0903 47.1667 10.0629 47.1923C10.0356 47.218 10.0033 47.2376 9.96819 47.2497C9.93305 47.2619 9.89582 47.2664 9.85888 47.263L9.5345 47.2343C9.33159 47.2165 9.23547 47.1037 9.24615 46.896C9.27552 46.2685 9.27352 45.6767 9.24015 45.1203Z" fill="#E30387"/>
<path d="M11.5587 43.562C11.8174 43.5583 12.0253 43.4222 12.0231 43.258C12.0209 43.0938 11.8093 42.9637 11.5505 42.9674C11.2918 42.9711 11.0838 43.1072 11.0861 43.2714C11.0883 43.4356 11.2999 43.5657 11.5587 43.562Z" fill="#E30387"/>
<path d="M13.9917 46.2351C14.0485 46.151 14.0717 46.0478 14.0564 45.947C14.0411 45.8462 13.9885 45.7555 13.9096 45.6938C13.5031 45.3719 12.9885 45.0479 12.8843 44.4943C12.8083 44.0993 12.8329 43.7493 12.9584 43.4445C13.1947 42.8622 14.2179 42.9176 14.6665 43.0713C14.7084 43.0856 14.7447 43.1136 14.7696 43.151C14.7946 43.1884 14.8069 43.2332 14.8046 43.2784L14.7866 43.6414C14.7799 43.7849 14.7078 43.8416 14.5703 43.8115C14.268 43.7418 13.8475 43.6598 13.6953 44.0391C13.6698 44.1033 13.6634 44.1737 13.6769 44.2416C13.6905 44.3095 13.7233 44.3717 13.7714 44.4205C14.1659 44.8203 14.8367 45.2078 14.9067 45.8045C15.0649 47.1557 14.0317 47.4756 12.9825 47.1536C12.8623 47.1167 12.8022 47.0334 12.8022 46.9035V46.5508C12.8036 46.4155 12.869 46.3615 12.9985 46.3889C13.3129 46.4524 13.7734 46.557 13.9917 46.2351Z" fill="#E30387"/>
<path d="M16.8372 46.4738L17.6962 46.4513C17.7191 46.4507 17.7419 46.4548 17.7632 46.4633C17.7846 46.4717 17.8041 46.4844 17.8206 46.5006C17.8372 46.5168 17.8504 46.5361 17.8597 46.5576C17.8689 46.579 17.8739 46.6021 17.8745 46.6255L17.8865 47.0643C17.887 47.0879 17.883 47.1114 17.8746 47.1334C17.8662 47.1554 17.8536 47.1754 17.8376 47.1924C17.8216 47.2094 17.8024 47.2229 17.7813 47.2323C17.7601 47.2416 17.7373 47.2465 17.7143 47.2468L16.0623 47.2612C16.0394 47.2614 16.0167 47.2571 15.9955 47.2484C15.9742 47.2397 15.9549 47.2267 15.9385 47.2104C15.9222 47.194 15.9091 47.1745 15.9001 47.1529C15.8911 47.1314 15.8864 47.1083 15.8861 47.0848L15.8521 43.1481C15.8521 43.1008 15.8704 43.0554 15.9031 43.022C15.9357 42.9885 15.9801 42.9697 16.0263 42.9697L17.7023 42.9779C17.7485 42.9779 17.7928 42.9967 17.8254 43.0302C17.8581 43.0636 17.8765 43.109 17.8765 43.1563L17.8805 43.5479C17.8811 43.5939 17.8643 43.6383 17.8337 43.6719C17.8031 43.7055 17.7611 43.7257 17.7163 43.7284L16.8492 43.7796C16.8078 43.7824 16.7687 43.8002 16.7389 43.8299C16.7092 43.8596 16.6908 43.8992 16.687 43.9416L16.649 44.3988C16.6471 44.4229 16.65 44.4472 16.6575 44.4701C16.665 44.493 16.677 44.5141 16.6927 44.5321C16.7085 44.5502 16.7276 44.5647 16.749 44.5749C16.7704 44.5852 16.7936 44.5908 16.8172 44.5916L17.6141 44.6244C17.6583 44.6264 17.7 44.6456 17.7308 44.6779C17.7617 44.7103 17.7794 44.7535 17.7803 44.7987L17.7864 45.219C17.7869 45.2429 17.7827 45.2667 17.7741 45.289C17.7654 45.3112 17.7525 45.3315 17.7361 45.3485C17.7196 45.3655 17.7 45.379 17.6784 45.3881C17.6567 45.3972 17.6335 45.4018 17.6101 45.4015L16.8753 45.3953C16.8307 45.3952 16.7879 45.4126 16.7555 45.4439C16.7231 45.4752 16.7036 45.5179 16.7011 45.5635L16.659 46.2831C16.6573 46.3079 16.6607 46.3328 16.669 46.3562C16.6772 46.3795 16.6902 46.4009 16.7069 46.4188C16.7237 46.4368 16.744 46.4509 16.7664 46.4604C16.7888 46.4699 16.813 46.4744 16.8372 46.4738Z" fill="#E30387"/>
<path d="M19.8887 46.2093L19.4882 47.1934C19.4822 47.2083 19.4718 47.221 19.4586 47.2298C19.4454 47.2386 19.4299 47.2431 19.4141 47.2427L18.7453 47.2303C18.7327 47.2302 18.7203 47.227 18.7092 47.2209C18.6981 47.2148 18.6886 47.206 18.6815 47.1953C18.6745 47.1846 18.67 47.1724 18.6686 47.1595C18.6671 47.1467 18.6687 47.1337 18.6733 47.1217L19.4121 45.1513C19.4184 45.1325 19.4177 45.1121 19.4101 45.0939L18.6232 43.0968C18.6183 43.0846 18.6163 43.0714 18.6176 43.0583C18.6188 43.0452 18.6232 43.0326 18.6303 43.0217C18.6374 43.0107 18.6471 43.0017 18.6584 42.9955C18.6698 42.9893 18.6824 42.9861 18.6953 42.9861L19.4221 42.9717C19.4387 42.9712 19.455 42.9761 19.4687 42.9856C19.4824 42.9952 19.4927 43.009 19.4982 43.025L19.8747 44.0666C19.8803 44.0818 19.8903 44.0949 19.9033 44.1042C19.9164 44.1135 19.9319 44.1184 19.9478 44.1184C19.9637 44.1184 19.9792 44.1135 19.9922 44.1042C20.0053 44.0949 20.0153 44.0818 20.0209 44.0666L20.4073 43.0496C20.4128 43.035 20.4224 43.0223 20.4348 43.0132C20.4473 43.0041 20.4621 42.9989 20.4774 42.9984L21.2123 42.9799C21.2253 42.9796 21.2382 42.9826 21.2498 42.9886C21.2614 42.9947 21.2713 43.0037 21.2787 43.0147C21.2861 43.0257 21.2906 43.0384 21.292 43.0517C21.2933 43.0649 21.2914 43.0783 21.2864 43.0906L20.4774 45.1041C20.4734 45.1139 20.4714 45.1243 20.4714 45.1349C20.4714 45.1454 20.4734 45.1559 20.4774 45.1656L21.2563 47.1381C21.2613 47.1504 21.2633 47.1638 21.2619 47.1771C21.2606 47.1903 21.256 47.2031 21.2487 47.2141C21.2413 47.2251 21.2314 47.234 21.2198 47.2401C21.2082 47.2461 21.1953 47.2491 21.1822 47.2488L20.5215 47.2344C20.5066 47.2342 20.4921 47.2297 20.4797 47.2213C20.4673 47.213 20.4575 47.2012 20.4514 47.1873L20.0329 46.2093C20.0269 46.1947 20.0169 46.1822 20.0041 46.1735C19.9913 46.1647 19.9762 46.1601 19.9608 46.1601C19.9454 46.1601 19.9303 46.1647 19.9175 46.1735C19.9046 46.1822 19.8946 46.1947 19.8887 46.2093Z" fill="#E30387"/>
<path d="M22.9865 46.1537L22.9885 47.0149C22.9885 47.1776 22.9098 47.2589 22.7522 47.2589L22.3638 47.2609C22.1982 47.2609 22.1148 47.1762 22.1135 47.0067L22.1055 43.154C22.1054 43.1104 22.1214 43.0684 22.1504 43.0364C22.1794 43.0044 22.2192 42.9849 22.2617 42.9818C22.6601 42.9531 23.0546 42.9777 23.4531 42.9859C24.0751 42.9968 24.4229 43.3263 24.4963 43.9742C24.5537 44.4745 24.5203 44.9399 24.3962 45.3705C24.212 46.0123 23.6293 45.9856 23.1107 46.0184C23.077 46.0205 23.0454 46.0357 23.0224 46.0608C22.9993 46.086 22.9865 46.1192 22.9865 46.1537ZM23.0146 43.9004L22.9885 45.0814C22.988 45.101 22.9912 45.1206 22.9981 45.139C23.005 45.1574 23.0153 45.1742 23.0285 45.1884C23.0417 45.2027 23.0575 45.2142 23.075 45.2222C23.0926 45.2302 23.1115 45.2346 23.1307 45.2352H23.1607C23.2954 45.238 23.4258 45.1792 23.5234 45.0716C23.621 44.9639 23.6778 44.8163 23.6813 44.6611L23.6894 44.3535C23.6911 44.2764 23.6797 44.1996 23.6557 44.1278C23.6317 44.0559 23.5956 43.9903 23.5494 43.9346C23.5033 43.879 23.448 43.8345 23.3868 43.8036C23.3256 43.7728 23.2597 43.7562 23.1928 43.7548H23.1627C23.1243 43.7542 23.0872 43.7692 23.0595 43.7965C23.0317 43.8237 23.0156 43.861 23.0146 43.9004Z" fill="#E30387"/>
<path d="M26.4267 45.9754C26.4143 45.964 26.3987 45.957 26.3821 45.9553C26.3656 45.9536 26.3489 45.9574 26.3346 45.9661C26.3203 45.9748 26.3091 45.988 26.3026 46.0036C26.2961 46.0193 26.2947 46.0367 26.2985 46.0533C26.3773 46.3786 26.392 46.7087 26.3426 47.0436C26.336 47.0885 26.3168 47.1304 26.2872 47.164C26.2576 47.1976 26.219 47.2213 26.1764 47.2322C25.9962 47.2787 25.8133 47.2849 25.6277 47.2507C25.5409 47.2357 25.4976 47.183 25.4976 47.0928L25.4996 43.0597C25.4996 43.034 25.5094 43.0092 25.527 42.9908C25.5446 42.9724 25.5685 42.9618 25.5937 42.9613C26.0409 42.9545 26.4961 42.9668 26.9593 42.9982C28.0906 43.0741 28.0166 44.579 27.7542 45.3602C27.7222 45.4532 27.6695 45.5311 27.5961 45.594L27.4058 45.7601C27.3311 45.8243 27.3151 45.9009 27.3578 45.9897L27.8363 46.9923C27.9204 47.17 27.8664 47.2568 27.6741 47.2527L27.2717 47.2445C27.1021 47.2404 26.9887 47.1571 26.9313 46.9944C26.8271 46.6909 26.6669 46.2009 26.4267 45.9754ZM26.3606 43.8963L26.3366 44.9707C26.336 44.9906 26.3393 45.0104 26.3463 45.0291C26.3532 45.0477 26.3637 45.0647 26.3771 45.0792C26.3905 45.0936 26.4065 45.1053 26.4243 45.1134C26.4421 45.1215 26.4613 45.126 26.4807 45.1265L26.5949 45.1286C26.6536 45.13 26.712 45.1179 26.7668 45.0931C26.8216 45.0682 26.8718 45.031 26.9144 44.9835C26.957 44.9361 26.9912 44.8794 27.015 44.8167C27.0389 44.754 27.0519 44.6865 27.0534 44.618L27.0614 44.2817C27.0645 44.1437 27.0204 44.0103 26.939 43.9107C26.8575 43.8111 26.7452 43.7536 26.6269 43.7507L26.5128 43.7486C26.4933 43.7481 26.4739 43.7515 26.4557 43.7586C26.4376 43.7657 26.4209 43.7765 26.4068 43.7902C26.3927 43.8039 26.3813 43.8203 26.3734 43.8385C26.3655 43.8567 26.3611 43.8763 26.3606 43.8963Z" fill="#E30387"/>
<path d="M29.6725 45.5837L29.6665 46.2747C29.6662 46.2981 29.6705 46.3214 29.679 46.3431C29.6875 46.3649 29.7001 46.3847 29.7161 46.4014C29.7321 46.4182 29.7511 46.4315 29.7722 46.4408C29.7932 46.45 29.8158 46.4549 29.8387 46.4551L30.7137 46.4592C30.7582 46.4597 30.8009 46.4776 30.8329 46.5092C30.8649 46.5409 30.8839 46.5839 30.8859 46.6294L30.906 47.0436C30.907 47.0673 30.9035 47.0911 30.8954 47.1134C30.8874 47.1357 30.8751 47.1562 30.8592 47.1736C30.8434 47.191 30.8243 47.2049 30.8031 47.2146C30.7819 47.2244 30.759 47.2296 30.7358 47.2302L29.0317 47.2609C29.0087 47.2612 28.9858 47.2568 28.9644 47.2479C28.9431 47.2391 28.9236 47.226 28.9072 47.2094C28.8909 47.1928 28.8778 47.173 28.869 47.1513C28.8601 47.1295 28.8555 47.1061 28.8555 47.0825L28.8535 43.1335C28.8535 43.1097 28.8581 43.0862 28.8671 43.0643C28.8762 43.0424 28.8893 43.0225 28.9059 43.0059C28.9226 42.9893 28.9422 42.9762 28.9638 42.9675C28.9854 42.9588 29.0085 42.9546 29.0317 42.9551L30.7237 43.0002C30.7473 43.0007 30.7706 43.0061 30.7921 43.0161C30.8135 43.0261 30.8328 43.0404 30.8487 43.0582C30.8647 43.0761 30.8769 43.097 30.8846 43.1198C30.8924 43.1426 30.8956 43.1668 30.8939 43.1909L30.8639 43.5784C30.8605 43.6218 30.8418 43.6625 30.8111 43.6927C30.7805 43.7229 30.7402 43.7406 30.6977 43.7425L29.8247 43.7753C29.7795 43.7769 29.7367 43.7964 29.7054 43.8296C29.674 43.8629 29.6564 43.9074 29.6565 43.9537L29.6585 44.4293C29.6585 44.4763 29.6765 44.5214 29.7088 44.5548C29.741 44.5882 29.7848 44.6072 29.8307 44.6077L30.5916 44.62C30.6371 44.6206 30.6806 44.6393 30.7128 44.6723C30.745 44.7052 30.7633 44.7498 30.7638 44.7964L30.7658 45.2105C30.7663 45.2575 30.7488 45.3028 30.7169 45.3366C30.685 45.3703 30.6414 45.3899 30.5956 45.391L29.8427 45.4074C29.7975 45.4084 29.7545 45.4274 29.7228 45.4603C29.691 45.4932 29.673 45.5375 29.6725 45.5837Z" fill="#E30387"/>
<path d="M32.79 44.4701C33.3127 44.9458 33.9334 45.3333 33.8813 46.1657C33.8093 47.2811 32.8001 47.3467 31.9591 47.1786C31.8069 47.1499 31.7294 47.0563 31.7268 46.8977L31.7208 46.584C31.72 46.5534 31.7262 46.523 31.739 46.4953C31.7519 46.4676 31.7709 46.4433 31.7946 46.4244C31.8183 46.4055 31.8461 46.3925 31.8757 46.3864C31.9053 46.3803 31.9359 46.3812 31.9651 46.3892C32.2734 46.4753 32.742 46.5368 32.9482 46.2129C32.9965 46.1367 33.016 46.045 33.0031 45.9549C32.9902 45.8648 32.9458 45.7823 32.8781 45.7228C32.1393 45.0749 31.3804 44.5172 31.939 43.3711C32.1953 42.8421 33.1905 42.9323 33.617 43.0553C33.6904 43.0772 33.7278 43.1271 33.7292 43.205L33.7372 43.7217C33.7375 43.7383 33.734 43.7547 33.727 43.7697C33.7199 43.7847 33.7094 43.7978 33.6964 43.808C33.6833 43.8181 33.6681 43.8251 33.6519 43.8282C33.6357 43.8314 33.6189 43.8307 33.603 43.8263C33.3841 43.762 33.1752 43.7449 32.9763 43.775C32.6519 43.8222 32.5397 44.2425 32.79 44.4701Z" fill="#E30387"/>
<path d="M35.8116 43.8104C35.7479 43.8359 35.6916 43.8777 35.6482 43.9319C35.6048 43.9861 35.5757 44.0508 35.5639 44.1198C35.552 44.1888 35.5577 44.2598 35.5804 44.326C35.6031 44.3921 35.642 44.4511 35.6935 44.4973C36.2802 45.0222 36.9069 45.3646 36.7768 46.316C36.6366 47.3268 35.5133 47.4293 34.7684 47.1074C34.699 47.0774 34.6569 47.0247 34.6422 46.9495C34.6169 46.8224 34.6149 46.6994 34.6362 46.5805C34.6643 46.4233 34.755 46.3625 34.9086 46.398C35.257 46.48 36.0039 46.5149 35.9378 45.949C35.9311 45.8929 35.9077 45.8458 35.8677 45.8075C35.5233 45.4753 34.9987 45.1719 34.8245 44.7228C34.6789 44.3524 34.6689 43.9444 34.7944 43.4988C34.9686 42.8775 35.9918 42.9267 36.4504 43.0149C36.5639 43.0367 36.6219 43.1065 36.6246 43.224L36.6326 43.6689C36.6353 43.7838 36.5825 43.8282 36.4744 43.8022C36.2021 43.7407 35.9812 43.7434 35.8116 43.8104Z" fill="#E30387"/>
<path d="M42.5478 44.6098L43.3487 44.6283C43.3711 44.6288 43.3931 44.6339 43.4136 44.6431C43.434 44.6524 43.4525 44.6657 43.4679 44.6822C43.4833 44.6988 43.4954 44.7183 43.5035 44.7397C43.5116 44.761 43.5154 44.7838 43.5149 44.8067L43.5069 45.229C43.5059 45.2749 43.4872 45.3185 43.4549 45.3504C43.4227 45.3822 43.3795 45.3998 43.3347 45.3992L42.5678 45.3951C42.523 45.3951 42.48 45.4132 42.4481 45.4454C42.4163 45.4777 42.3981 45.5215 42.3976 45.5674L42.3836 46.2932C42.3833 46.3164 42.3876 46.3395 42.3961 46.361C42.4047 46.3825 42.4174 46.4021 42.4334 46.4185C42.4495 46.4349 42.4685 46.4479 42.4896 46.4567C42.5106 46.4654 42.5331 46.4698 42.5558 46.4695L43.4148 46.4613C43.4589 46.4607 43.5016 46.4777 43.5337 46.5087C43.5658 46.5397 43.5849 46.5823 43.587 46.6274L43.609 47.0723C43.6101 47.0959 43.6065 47.1195 43.5984 47.1416C43.5904 47.1637 43.578 47.1838 43.5621 47.2009C43.5462 47.218 43.5271 47.2315 43.5059 47.2408C43.4847 47.2501 43.4619 47.2548 43.4388 47.2548L41.7488 47.2569C41.7037 47.2569 41.6604 47.2385 41.6285 47.2058C41.5965 47.1731 41.5786 47.1288 41.5786 47.0826L41.5846 43.1582C41.5846 43.1353 41.589 43.1126 41.5976 43.0915C41.6061 43.0703 41.6187 43.0511 41.6345 43.0349C41.6503 43.0187 41.669 43.0059 41.6897 42.9972C41.7103 42.9884 41.7325 42.9839 41.7548 42.9839L43.4408 42.99C43.4642 42.9902 43.4874 42.9954 43.5087 43.0051C43.5301 43.0149 43.5493 43.0291 43.5651 43.0468C43.5809 43.0645 43.5929 43.0854 43.6005 43.108C43.608 43.1307 43.611 43.1548 43.609 43.1787L43.577 43.5785C43.5731 43.6208 43.5543 43.6602 43.524 43.6892C43.4938 43.7183 43.4542 43.7351 43.4128 43.7364L42.5578 43.7651C42.5144 43.7666 42.4732 43.7851 42.4427 43.8168C42.4121 43.8484 42.3946 43.8908 42.3936 43.9353L42.3816 44.4315C42.381 44.4543 42.3849 44.4771 42.393 44.4985C42.401 44.5198 42.4131 44.5393 42.4286 44.5559C42.444 44.5725 42.4625 44.5858 42.4829 44.595C42.5034 44.6043 42.5254 44.6093 42.5478 44.6098Z" fill="#E30387"/>
<path d="M45.4011 44.0498C45.3944 44.4271 45.4765 44.4483 45.6474 44.1134L46.0819 43.2625C46.1686 43.0916 46.3061 43.0014 46.4944 42.9918L46.7527 42.9795C47.0063 42.9672 47.0731 43.0745 46.9529 43.3015C46.7647 43.6568 46.5685 44.0293 46.3642 44.4189C46.21 44.7121 46.1099 45.0156 46.2621 45.3334C46.5411 45.9198 46.7947 46.4925 47.023 47.0516C47.0764 47.1801 47.035 47.245 46.8988 47.2464L46.4503 47.2505C46.3819 47.251 46.3147 47.2312 46.2571 47.1933C46.1995 47.1554 46.1539 47.1012 46.1259 47.0372L45.6634 45.9792C45.4818 45.5623 45.3957 45.5821 45.4051 46.0387L45.4231 46.9655C45.4247 47.0353 45.3997 47.1031 45.3534 47.1544C45.307 47.2057 45.243 47.2365 45.1748 47.2402L44.7983 47.2607C44.6288 47.2703 44.544 47.1883 44.544 47.0147L44.54 43.203C44.54 43.0267 44.6255 42.9433 44.7963 42.9529L45.1588 42.9754C45.3323 42.985 45.4171 43.0786 45.4131 43.2563L45.4011 44.0498Z" fill="#E30387"/>
<path d="M48.8352 46.3693C48.8899 46.344 48.9378 46.3054 48.9747 46.2569C49.0117 46.2084 49.0365 46.1514 49.0472 46.0909C49.0578 46.0304 49.0539 45.9681 49.0358 45.9094C49.0177 45.8508 48.986 45.7975 48.9433 45.7542C48.7697 45.5779 48.5862 45.4159 48.3926 45.2683C47.828 44.8398 47.6758 44.1242 47.9461 43.4578C48.1884 42.855 49.0875 42.9514 49.6201 43.0108C49.7362 43.0245 49.7936 43.0915 49.7923 43.2118L49.7823 43.7059C49.7821 43.7238 49.778 43.7413 49.7703 43.7574C49.7626 43.7734 49.7515 43.7875 49.7377 43.7987C49.7239 43.8099 49.7078 43.8178 49.6906 43.822C49.6734 43.8261 49.6555 43.8264 49.6381 43.8228C49.4806 43.79 49.3231 43.7681 49.1656 43.7572C48.6509 43.7203 48.5769 44.2677 48.9153 44.5548C49.4259 44.9894 49.9845 45.3913 49.9225 46.1705C49.8303 47.3187 48.8752 47.3269 48.0162 47.1813C47.8346 47.1512 47.7479 47.0419 47.7559 46.8532L47.7659 46.5949C47.7739 46.409 47.8647 46.342 48.0382 46.3939C48.3412 46.4828 48.6069 46.4746 48.8352 46.3693Z" fill="#E30387"/>
<path d="M51.0998 43.7609L50.7734 43.7445C50.6519 43.739 50.5885 43.6734 50.5832 43.5477L50.5692 43.2196C50.5638 43.0911 50.6232 43.0194 50.7474 43.0043C51.3241 42.9332 51.9415 42.9291 52.5996 42.992C52.6757 42.9989 52.7197 43.0405 52.7318 43.1171C52.7932 43.5067 52.6316 43.7233 52.2472 43.7671C52.2069 43.7716 52.1696 43.7914 52.1423 43.8227C52.115 43.854 52.0996 43.8948 52.099 43.9372L52.067 47.019C52.0659 47.0821 52.0408 47.1423 51.9971 47.1867C51.9533 47.2311 51.8943 47.2563 51.8327 47.2568L51.4002 47.2589C51.3041 47.2589 51.256 47.2096 51.256 47.1112L51.26 43.9331C51.26 43.8238 51.2066 43.7664 51.0998 43.7609Z" fill="#E30387"/>
<path d="M57.3313 46.6208L57.3694 47.0698C57.3711 47.0897 57.3687 47.1097 57.3624 47.1285C57.3561 47.1474 57.346 47.1647 57.3328 47.1794C57.3196 47.194 57.3036 47.2057 57.2858 47.2137C57.2679 47.2217 57.2487 47.2257 57.2292 47.2257L55.6934 47.2359C55.6566 47.2359 55.6212 47.2211 55.595 47.1946C55.5688 47.1681 55.5538 47.1321 55.5532 47.0944L55.5332 43.09C55.5332 43.0705 55.537 43.0511 55.5446 43.0332C55.5521 43.0152 55.5632 42.999 55.577 42.9855C55.5909 42.9721 55.6073 42.9617 55.6253 42.955C55.6432 42.9483 55.6623 42.9454 55.6814 42.9465L56.238 42.9732C56.2738 42.9747 56.3077 42.9903 56.3326 43.0166C56.3576 43.0429 56.3717 43.078 56.3722 43.1147L56.4183 46.3542C56.4185 46.3731 56.4224 46.3917 56.4297 46.409C56.437 46.4263 56.4475 46.442 56.4607 46.4551C56.4739 46.4683 56.4895 46.4786 56.5066 46.4856C56.5237 46.4925 56.542 46.496 56.5604 46.4957L57.1912 46.4896C57.2264 46.4894 57.2603 46.5029 57.2863 46.5272C57.3122 46.5515 57.3283 46.5849 57.3313 46.6208Z" fill="#E30387"/>
<path d="M60.0304 42.9563L59.5298 42.9572C59.4314 42.9574 59.3517 43.0392 59.3519 43.14L59.3586 47.0767C59.3588 47.1775 59.4387 47.2591 59.5371 47.2589L60.0377 47.258C60.1361 47.2578 60.2158 47.176 60.2156 47.0752L60.2089 43.1385C60.2087 43.0377 60.1288 42.9561 60.0304 42.9563Z" fill="#E30387"/>
<path d="M62.9797 44.7658C62.9556 44.2409 62.9476 43.714 62.9556 43.185C62.9561 43.1554 62.9625 43.1261 62.9743 43.0991C62.9861 43.0721 63.0031 43.0479 63.0243 43.0279C63.0455 43.0079 63.0704 42.9927 63.0975 42.983C63.1246 42.9733 63.1533 42.9695 63.1819 42.9717L63.6284 43.0066C63.7312 43.0148 63.7826 43.0722 63.7826 43.1788L63.7646 47.0581C63.7646 47.162 63.7139 47.216 63.6124 47.2201C63.286 47.2345 62.9857 47.3944 62.8435 46.9597C62.6539 46.3829 62.4484 45.86 62.2268 45.3912C62.0746 45.0713 62.0105 45.0891 62.0345 45.4445C62.0666 45.938 62.0666 46.4519 62.0345 46.9864C62.0252 47.1695 61.9311 47.2604 61.7522 47.2591L61.4999 47.257C61.3304 47.257 61.2456 47.1702 61.2456 46.9966V43.1132C61.2456 43.0298 61.2857 42.9813 61.3657 42.9676C61.5593 42.9362 61.7435 42.9526 61.9184 43.0169C61.9918 43.0442 62.0439 43.0955 62.0746 43.1706L62.7354 44.8212C62.9196 45.2846 63.001 45.2661 62.9797 44.7658Z" fill="#E30387"/>
<path d="M65.8216 47.4994C65.8055 47.3818 65.7408 47.3149 65.6273 47.2984C65.3417 47.2561 65.048 47.1952 64.7463 47.116C64.6528 47.0914 64.6101 47.0299 64.6181 46.9314L64.6502 46.5337C64.6595 46.4161 64.7196 46.371 64.8304 46.3983C65.2015 46.4899 65.4838 46.4824 65.6774 46.3758C65.7383 46.3422 65.7899 46.2934 65.8275 46.2339C65.865 46.1745 65.8873 46.1063 65.8921 46.0358C65.8969 45.9653 65.8841 45.8948 65.855 45.8309C65.8258 45.767 65.7813 45.7118 65.7255 45.6705C64.9666 45.1087 64.3718 44.4792 64.8084 43.4171C65.0306 42.8799 65.9377 42.9394 66.4223 43.0152C66.5891 43.0412 66.6699 43.1403 66.6646 43.3125L66.6546 43.618C66.6492 43.8149 66.5558 43.8805 66.3742 43.8149C66.1473 43.7315 65.9457 43.7322 65.7695 43.8169C65.7157 43.843 65.6685 43.8816 65.632 43.9297C65.5954 43.9779 65.5703 44.0341 65.5588 44.0939C65.5473 44.1538 65.5497 44.2155 65.5658 44.2743C65.5819 44.333 65.6112 44.387 65.6514 44.432C66.0018 44.8216 66.5424 45.084 66.7026 45.5966C66.8768 46.1625 66.7947 46.9294 66.168 47.1631C66.0772 47.1959 66.0472 47.2595 66.0779 47.3538C66.1126 47.4604 66.166 47.5609 66.2381 47.6552C66.2599 47.6841 66.274 47.7184 66.2789 47.7546C66.2838 47.7908 66.2794 47.8278 66.2661 47.8618C66.2528 47.8959 66.231 47.926 66.2029 47.9491C66.1749 47.9722 66.1414 47.9875 66.1059 47.9935L65.5432 48.0899C65.4645 48.1036 65.4104 48.0728 65.381 47.9976C65.353 47.9211 65.355 47.8466 65.387 47.7741C65.4137 47.7167 65.4565 47.6778 65.5152 47.6573C65.5793 47.6354 65.6447 47.6251 65.7114 47.6265C65.7955 47.6279 65.8322 47.5855 65.8216 47.4994Z" fill="#E30387"/>
<path d="M68.4583 46.5596L68.4022 47.0497C68.3957 47.1076 68.3685 47.161 68.3259 47.1993C68.2833 47.2376 68.2284 47.2581 68.172 47.2567L67.7675 47.2506C67.6086 47.2479 67.5432 47.1665 67.5712 47.0066L68.2801 43.1047C68.2974 43.005 68.3555 42.9571 68.4543 42.9612C68.6732 42.9694 68.9028 42.966 69.1431 42.951C69.3941 42.9359 69.5396 43.0562 69.5796 43.3118C69.7745 44.5571 70.0075 45.8003 70.2785 47.0415C70.3092 47.1877 70.2518 47.2602 70.1063 47.2588L69.6798 47.2547C69.5262 47.2533 69.4395 47.1741 69.4194 47.0169L69.3594 46.5719C69.346 46.4749 69.2913 46.4263 69.1952 46.4263L68.5985 46.4304C68.5144 46.4304 68.4676 46.4735 68.4583 46.5596ZM68.7687 45.678H69.057C69.0799 45.678 69.1018 45.6687 69.1179 45.6521C69.134 45.6356 69.1431 45.6132 69.1431 45.5898V45.5713C69.1438 45.3676 69.1391 45.1659 69.1291 44.9777C69.1192 44.7896 69.1044 44.6188 69.0854 44.4751C69.0664 44.3314 69.0437 44.2177 69.0185 44.1406C68.9934 44.0634 68.9663 44.0242 68.9389 44.0254H68.8948C68.8398 44.0276 68.7866 44.1915 68.7468 44.4812C68.707 44.7709 68.6839 45.1628 68.6826 45.5713V45.5898C68.6826 45.6132 68.6916 45.6356 68.7078 45.6521C68.7239 45.6687 68.7458 45.678 68.7687 45.678Z" fill="#E30387"/>
<path d="M71.973 46.5351C71.9129 46.6759 71.8808 46.829 71.8768 46.9944C71.8742 47.1721 71.7861 47.2616 71.6125 47.263H71.2501C71.0672 47.263 70.9931 47.1707 71.0278 46.9862L71.7367 43.1479C71.7476 43.0899 71.7788 43.038 71.8243 43.0015C71.8699 42.965 71.9269 42.9463 71.985 42.949L72.872 42.9961C72.9414 43.0002 72.9822 43.0371 72.9942 43.1069L73.695 46.9903C73.719 47.1229 73.6656 47.1974 73.5348 47.2138L73.1263 47.265C73.0964 47.2687 73.0661 47.2663 73.0372 47.2578C73.0082 47.2494 72.9812 47.2351 72.9577 47.2158C72.9342 47.1965 72.9147 47.1726 72.9003 47.1455C72.8859 47.1184 72.877 47.0886 72.874 47.0579L72.834 46.6458C72.826 46.5624 72.7846 46.5036 72.7098 46.4695C72.5216 46.3834 72.32 46.3676 72.1051 46.4223C72.0437 46.4374 71.9997 46.4749 71.973 46.5351ZM72.6377 45.432C72.5617 44.985 72.5296 44.5257 72.4435 44.0931C72.4408 44.0781 72.4342 44.0651 72.4235 44.0541C72.4101 44.0391 72.3895 44.0336 72.3614 44.0377C72.3214 44.0459 72.3 44.0712 72.2973 44.1136C72.2706 44.5387 72.1966 44.972 72.0751 45.4135C72.0537 45.4942 72.0771 45.5571 72.1452 45.6022C72.2319 45.6582 72.3321 45.6835 72.4455 45.678C72.6004 45.6685 72.6644 45.5864 72.6377 45.432Z" fill="#E30387"/>
<path d="M74.7361 43.7715C74.6279 43.7319 74.5145 43.7189 74.3956 43.7325C74.3615 43.7364 74.3272 43.7278 74.2986 43.7083C74.2701 43.6888 74.2491 43.6596 74.2395 43.6259C74.1967 43.4701 74.1814 43.3109 74.1934 43.1482C74.2028 43.0197 74.2702 42.9568 74.3956 42.9596L76.1057 42.9801C76.138 42.9807 76.169 42.9924 76.1938 43.0133C76.2185 43.0342 76.2355 43.0629 76.2418 43.0949C76.3126 43.4585 76.1965 43.6847 75.8934 43.7736C75.8391 43.789 75.7911 43.822 75.7565 43.8678C75.7219 43.9136 75.7025 43.9697 75.7012 44.0278L75.6211 47.048C75.6184 47.1765 75.5544 47.2421 75.4289 47.2448L75.0184 47.2571C74.9143 47.2599 74.8615 47.2079 74.8602 47.1013L74.8101 43.8781C74.8102 43.8547 74.803 43.8318 74.7897 43.8127C74.7765 43.7936 74.7577 43.7792 74.7361 43.7715Z" fill="#E30387"/>
<path d="M79.5741 43.9271L79.4519 47.0723C79.4479 47.1967 79.3852 47.2589 79.2637 47.2589H78.9093C78.7985 47.2589 78.7404 47.2022 78.7351 47.0887L78.5929 43.964C78.5907 43.9167 78.5736 43.8715 78.544 43.8349C78.5144 43.7983 78.474 43.7724 78.4287 43.761C78.1631 43.6981 78.0516 43.4944 78.0943 43.15C78.1001 43.1083 78.1202 43.0701 78.151 43.0422C78.1819 43.0144 78.2214 42.9988 78.2625 42.9982L79.9525 42.9941C80.0055 42.9941 80.0563 43.0152 80.0941 43.0527C80.132 43.0903 80.1537 43.1414 80.1548 43.1951C80.1615 43.5259 80.0213 43.7097 79.7343 43.7466C79.6315 43.7603 79.5781 43.8204 79.5741 43.9271Z" fill="#E30387"/>
<path d="M81.8907 45.5654L81.8747 46.2995C81.8744 46.3226 81.8787 46.3455 81.8873 46.367C81.8959 46.3884 81.9086 46.4078 81.9246 46.424C81.9407 46.4403 81.9598 46.4531 81.9808 46.4616C82.0018 46.4702 82.0243 46.4743 82.0469 46.4737L82.9019 46.4491C82.9459 46.448 82.9885 46.4645 83.0207 46.4952C83.0529 46.5259 83.072 46.5682 83.0741 46.6132L83.0981 47.0683C83.0992 47.0916 83.0957 47.1149 83.0877 47.1368C83.0797 47.1586 83.0675 47.1786 83.0518 47.1955C83.0361 47.2123 83.0172 47.2258 82.9962 47.2349C82.9753 47.2441 82.9527 47.2488 82.9299 47.2488L81.2259 47.259C81.1813 47.259 81.1385 47.2409 81.107 47.2086C81.0754 47.1763 81.0577 47.1325 81.0577 47.0868L81.0537 43.1439C81.0537 43.1211 81.0581 43.0986 81.0667 43.0775C81.0753 43.0565 81.0879 43.0374 81.1037 43.0214C81.1195 43.0054 81.1383 42.9927 81.1589 42.9842C81.1796 42.9757 81.2017 42.9714 81.2239 42.9717L82.9179 42.9819C82.9625 42.9819 83.0053 43.0001 83.0369 43.0324C83.0684 43.0647 83.0861 43.1085 83.0861 43.1542L83.0881 43.5437C83.0887 43.5881 83.0726 43.6309 83.0432 43.6634C83.0137 43.6958 82.9731 43.7154 82.9299 43.718L82.0429 43.7713C82.0014 43.7738 81.9623 43.792 81.933 43.8223C81.9038 43.8525 81.8866 43.8928 81.8847 43.9354L81.8667 44.4295C81.8651 44.4749 81.881 44.519 81.911 44.5524C81.941 44.5858 81.9826 44.6058 82.0269 44.6079L82.8318 44.6448C82.8541 44.6458 82.876 44.6514 82.8961 44.6612C82.9163 44.671 82.9343 44.6847 82.9492 44.7017C82.9641 44.7187 82.9756 44.7385 82.9829 44.7601C82.9903 44.7817 82.9934 44.8045 82.992 44.8273L82.97 45.2148C82.9675 45.258 82.9492 45.2986 82.9188 45.3286C82.8884 45.3586 82.848 45.3758 82.8058 45.3768L82.0549 45.3973C82.0117 45.3983 81.9705 45.4164 81.9399 45.4477C81.9094 45.479 81.8917 45.5212 81.8907 45.5654Z" fill="#E30387"/>
<path d="M86.0294 45.11L85.639 46.0962C85.6291 46.1215 85.6121 46.1432 85.5901 46.1586C85.5681 46.174 85.5421 46.1823 85.5155 46.1825C85.4889 46.1828 85.4628 46.1749 85.4406 46.1599C85.4183 46.1448 85.401 46.1234 85.3907 46.0983L84.9902 45.11C84.9715 45.0662 84.9395 45.0457 84.8941 45.0485C84.8754 45.0485 84.86 45.0567 84.848 45.0731C84.8333 45.0922 84.826 45.1141 84.826 45.1387C84.8233 45.7716 84.8253 46.4072 84.832 47.0455C84.8347 47.1891 84.7653 47.2601 84.6238 47.2588H84.1892C84.0624 47.2574 83.999 47.1911 83.999 47.0599L84.009 43.1457C84.009 43.0159 84.0724 42.953 84.1993 42.9571L84.6578 42.9776C84.7539 42.9817 84.8213 43.0288 84.86 43.1191C85.0416 43.5428 85.2091 43.9789 85.3626 44.4272C85.388 44.5051 85.4367 44.5564 85.5088 44.581C85.5317 44.5889 85.5566 44.5873 85.5783 44.5766C85.6001 44.5658 85.6168 44.5468 85.625 44.5236C85.7691 44.1039 85.9327 43.6617 86.1155 43.197C86.2417 42.873 86.6141 42.9325 86.8825 43.0042C86.9277 43.0165 86.9677 43.0438 86.9963 43.082C87.025 43.1202 87.0405 43.1671 87.0406 43.2154L87.0386 47.0127C87.0387 47.0656 87.02 47.1167 86.9862 47.1566C86.9523 47.1966 86.9055 47.2227 86.8544 47.2301C86.6769 47.2547 86.504 47.2506 86.3358 47.2178C86.2855 47.2075 86.2404 47.1791 86.2088 47.1377C86.1772 47.0963 86.1612 47.0447 86.1636 46.9922C86.1863 46.3388 86.1883 45.7196 86.1696 45.1346C86.1616 44.8995 86.1149 44.8913 86.0294 45.11Z" fill="#E30387"/>
<path d="M88.7083 42.9675L88.1997 42.9666C88.1013 42.9665 88.0213 43.048 88.0212 43.1488L88.0145 47.0691C88.0143 47.1699 88.094 47.2517 88.1924 47.2519L88.701 47.2528C88.7994 47.253 88.8793 47.1714 88.8795 47.0706L88.8862 43.1503C88.8864 43.0496 88.8067 42.9677 88.7083 42.9675Z" fill="#E30387"/>
<path d="M90.9033 43.7344L90.0883 43.7754C89.9802 43.7809 89.9228 43.7283 89.9161 43.6175L89.8941 43.1624C89.8874 43.0448 89.9415 42.986 90.0563 42.986L91.8504 42.9717C91.9158 42.9717 91.9512 43.0052 91.9565 43.0721C91.9859 43.433 91.9392 43.7597 91.8163 44.0522C91.5133 44.7685 91.1622 45.5121 90.7631 46.283C90.7521 46.3045 90.7469 46.3286 90.7479 46.3529C90.749 46.3771 90.7563 46.4007 90.7691 46.4211C90.7819 46.4415 90.7998 46.4581 90.8209 46.4691C90.842 46.4802 90.8656 46.4853 90.8892 46.484L91.7302 46.4348C91.8664 46.4279 91.9358 46.4942 91.9385 46.6337L91.9445 47.0519C91.9472 47.19 91.8818 47.2576 91.7483 47.2549L89.9421 47.2262C89.912 47.2258 89.8831 47.2139 89.861 47.1927C89.8388 47.1715 89.8249 47.1425 89.822 47.1114C89.7879 46.7198 89.844 46.3425 90.0162 45.9898C90.3606 45.2872 90.693 44.5915 91.0134 43.9025C91.0216 43.8841 91.0251 43.8638 91.0235 43.8435C91.0218 43.8233 91.0152 43.8039 91.0042 43.787C90.9931 43.7702 90.9781 43.7565 90.9604 43.7473C90.9427 43.7381 90.9231 43.7336 90.9033 43.7344Z" fill="#E30387"/>
<path d="M94.0572 46.4876L94.692 46.4322C94.7112 46.4305 94.7306 46.4329 94.7489 46.4392C94.7671 46.4456 94.784 46.4557 94.7982 46.469C94.8125 46.4822 94.824 46.4984 94.8319 46.5164C94.8398 46.5344 94.844 46.5539 94.8442 46.5737L94.8502 47.1047C94.8505 47.1238 94.847 47.1427 94.8401 47.1603C94.8332 47.178 94.8229 47.194 94.8098 47.2076C94.7968 47.2211 94.7813 47.2319 94.7641 47.2392C94.747 47.2465 94.7286 47.2503 94.71 47.2503L93.1802 47.2544C93.143 47.2544 93.1074 47.2393 93.0811 47.2124C93.0548 47.1855 93.04 47.149 93.04 47.1109V43.1045C93.04 43.0664 93.0548 43.0299 93.0811 43.003C93.1074 42.9761 93.143 42.9609 93.1802 42.9609L93.7769 42.965C93.8141 42.965 93.8497 42.9802 93.876 43.0071C93.9023 43.034 93.9171 43.0705 93.9171 43.1086L93.9051 46.3441C93.905 46.364 93.909 46.3837 93.9168 46.402C93.9245 46.4202 93.936 46.4367 93.9503 46.4502C93.9646 46.4637 93.9815 46.474 93.9999 46.4804C94.0183 46.4868 94.0379 46.4893 94.0572 46.4876Z" fill="#E30387"/>
<path d="M96.4937 42.9673H95.9651C95.8722 42.9673 95.7969 43.0444 95.7969 43.1395V47.0762C95.7969 47.1714 95.8722 47.2485 95.9651 47.2485H96.4937C96.5866 47.2485 96.6619 47.1714 96.6619 47.0762V43.1395C96.6619 43.0444 96.5866 42.9673 96.4937 42.9673Z" fill="#E30387"/>
<path d="M98.4661 47.2119L97.7753 47.2591C97.7657 47.2596 97.7562 47.2582 97.7472 47.2548C97.7382 47.2515 97.73 47.2463 97.7231 47.2396C97.7162 47.2328 97.7106 47.2247 97.7069 47.2158C97.7031 47.2068 97.7012 47.1971 97.7012 47.1873L97.7052 43.0271C97.7051 43.0171 97.7071 43.0073 97.711 42.9981C97.7149 42.989 97.7206 42.9808 97.7278 42.9741C97.7349 42.9673 97.7434 42.9622 97.7526 42.9589C97.7618 42.9557 97.7716 42.9545 97.7813 42.9553L98.4901 43.0087C98.5083 43.0097 98.5255 43.018 98.5378 43.0318C98.5501 43.0456 98.5567 43.0638 98.5562 43.0825L98.5121 44.3352C98.5113 44.3516 98.5159 44.3678 98.5253 44.3811C98.5347 44.3944 98.5482 44.404 98.5637 44.4083C98.5791 44.4126 98.5955 44.4113 98.6102 44.4048C98.6249 44.3982 98.6369 44.3867 98.6443 44.3722L99.3732 43.0394C99.3791 43.0284 99.3878 43.0192 99.3984 43.0127C99.4089 43.0062 99.4209 43.0027 99.4332 43.0025L100.116 42.9922C100.128 42.9919 100.14 42.9949 100.151 43.0008C100.162 43.0067 100.171 43.0153 100.177 43.0258C100.184 43.0364 100.187 43.0485 100.188 43.0609C100.188 43.0734 100.186 43.0857 100.18 43.0968L99.2851 44.9073C99.2803 44.9168 99.2776 44.9272 99.2773 44.9378C99.2769 44.9485 99.2789 44.959 99.2831 44.9688L100.2 47.1443C100.204 47.1552 100.206 47.1671 100.205 47.1789C100.203 47.1906 100.199 47.2018 100.193 47.2116C100.186 47.2213 100.178 47.2292 100.167 47.2347C100.157 47.2401 100.146 47.2428 100.134 47.2427L99.4132 47.2345C99.4002 47.2342 99.3874 47.2303 99.3765 47.223C99.3655 47.2158 99.3567 47.2055 99.3511 47.1935L98.6583 45.6721C98.6511 45.658 98.6396 45.6468 98.6256 45.6402C98.6116 45.6335 98.5957 45.6318 98.5807 45.6353C98.5656 45.6389 98.552 45.6474 98.5422 45.6596C98.5323 45.6718 98.5267 45.687 98.5262 45.7028L98.5322 47.1402C98.5322 47.1585 98.5254 47.1762 98.5131 47.1895C98.5008 47.2029 98.484 47.2109 98.4661 47.2119Z" fill="#E30387"/>
<path d="M39.0515 43.7444C38.9674 43.7294 38.8813 43.7314 38.7932 43.7506C38.7572 43.758 38.7197 43.7523 38.6872 43.7343C38.6547 43.7164 38.6291 43.6873 38.6149 43.6521C38.5575 43.5059 38.5375 43.3528 38.5549 43.1928C38.5682 43.0671 38.637 43.0035 38.7611 43.0022L40.5072 42.9981C40.6687 42.9967 40.7355 43.078 40.7074 43.2421L40.6694 43.4676C40.6427 43.6289 40.5492 43.7116 40.3891 43.7157C40.1781 43.7212 40.0693 43.8264 40.0627 44.0315C40.0293 45.1414 40.026 46.1509 40.0527 47.0599C40.0538 47.0981 40.0403 47.1353 40.0152 47.1633C39.9901 47.1913 39.9553 47.2079 39.9185 47.2095L39.3799 47.2403C39.2864 47.2458 39.239 47.2006 39.2377 47.105L39.2056 43.9269C39.2043 43.8216 39.1529 43.7608 39.0515 43.7444Z" fill="#E30387"/>
<path d="M11.75 43.9845L11.3616 43.9838C11.2466 43.9836 11.1532 44.0789 11.153 44.1966L11.1481 47.0385C11.1479 47.1562 11.241 47.2519 11.356 47.2521L11.7445 47.2528C11.8595 47.253 11.9529 47.1577 11.9531 47.0399L11.9579 44.1981C11.9581 44.0803 11.865 43.9847 11.75 43.9845Z" fill="#E30387"/>
<path d="M29.8655 50.0966L29.4011 50.0842C29.3071 50.0816 29.229 50.1576 29.2265 50.2538L29.2216 50.4465C29.2191 50.5427 29.2933 50.6227 29.3873 50.6253L29.8517 50.6377C29.9456 50.6402 30.0238 50.5643 30.0263 50.4681L30.0312 50.2754C30.0336 50.1792 29.9595 50.0991 29.8655 50.0966Z" fill="#E30387"/>
<path d="M41.9868 50.0855L41.5466 50.1043C41.4505 50.1085 41.3758 50.1916 41.3799 50.29L41.3891 50.5154C41.3931 50.6138 41.4743 50.6903 41.5704 50.6861L42.0106 50.6673C42.1067 50.6631 42.1814 50.58 42.1773 50.4816L42.1681 50.2562C42.1641 50.1578 42.0829 50.0813 41.9868 50.0855Z" fill="#E30387"/>
<path d="M43.0277 50.0915L42.6914 50.0831C42.5919 50.0806 42.5093 50.1612 42.5068 50.2631L42.5013 50.4927C42.4989 50.5946 42.5776 50.6792 42.6771 50.6817L43.0134 50.6901C43.1129 50.6926 43.1955 50.612 43.198 50.5101L43.2034 50.2805C43.2059 50.1786 43.1272 50.094 43.0277 50.0915Z" fill="#E30387"/>
<path d="M65.4008 50.081L64.9443 50.0908C64.8559 50.0927 64.7857 50.1677 64.7875 50.2582L64.7924 50.496C64.7943 50.5866 64.8675 50.6585 64.9559 50.6566L65.4124 50.6468C65.5008 50.6449 65.571 50.5699 65.5692 50.4794L65.5643 50.2416C65.5624 50.151 65.4892 50.0791 65.4008 50.081Z" fill="#E30387"/>
<path d="M97.001 50.0888L96.4524 50.0917C96.3926 50.092 96.3445 50.1419 96.3448 50.203L96.3465 50.527C96.3468 50.5881 96.3954 50.6374 96.4552 50.6371L97.0038 50.6342C97.0635 50.6338 97.1117 50.584 97.1114 50.5229L97.1097 50.1989C97.1094 50.1378 97.0607 50.0884 97.001 50.0888Z" fill="#E30387"/>
<path d="M29.892 50.8782L29.3914 50.8773C29.2863 50.8771 29.201 50.9642 29.2008 51.0717L29.1941 55.0003C29.194 55.1078 29.279 55.1952 29.384 55.1954L29.8846 55.1963C29.9897 55.1965 30.075 55.1094 30.0752 55.0018L30.0819 51.0733C30.0821 50.9657 29.9971 50.8784 29.892 50.8782Z" fill="#E30387"/>
<path d="M65.4932 50.8839L64.8725 50.885C64.8083 50.8852 64.7564 50.9385 64.7566 51.0042L64.7635 55.0803C64.7636 55.146 64.8157 55.1991 64.8798 55.199L65.5006 55.1979C65.5647 55.1978 65.6166 55.1445 65.6165 55.0788L65.6096 51.0027C65.6095 50.937 65.5574 50.8838 65.4932 50.8839Z" fill="#E30387"/>
<path d="M96.9647 50.8753L96.4641 50.8762C96.3712 50.8763 96.296 50.9536 96.2962 51.0487L96.303 55.0223C96.3031 55.1174 96.3786 55.1944 96.4715 55.1942L96.9721 55.1934C97.0649 55.1932 97.1401 55.1159 97.14 55.0208L97.1332 51.0472C97.133 50.9521 97.0576 50.8751 96.9647 50.8753Z" fill="#E30387"/>
<path d="M10.3092 51.7209L9.96282 51.6594C9.8053 51.6321 9.73855 51.5378 9.76258 51.3765L9.79262 51.1632C9.80325 51.0903 9.83911 51.0238 9.89357 50.9759C9.94804 50.9281 10.0174 50.9021 10.089 50.9028L11.7029 50.9111C11.7541 50.9111 11.8032 50.9319 11.8395 50.9692C11.8759 51.0064 11.8966 51.057 11.8971 51.1099L11.8991 51.4667C11.8991 51.4943 11.8938 51.5217 11.8834 51.5472C11.873 51.5727 11.8578 51.5959 11.8386 51.6153C11.8194 51.6348 11.7967 51.6501 11.7717 51.6605C11.7466 51.6709 11.7199 51.6761 11.6929 51.6758C11.5794 51.6745 11.4733 51.695 11.3745 51.7374C11.2984 51.7715 11.2604 51.831 11.2604 51.9157V54.9933C11.2604 55.021 11.2551 55.0483 11.2448 55.0739C11.2345 55.0994 11.2194 55.1225 11.2004 55.142C11.1814 55.1614 11.1589 55.1768 11.1341 55.1872C11.1094 55.1975 11.0828 55.2028 11.0561 55.2025L10.6416 55.2004C10.5081 55.1991 10.4414 55.1307 10.4414 54.9954L10.4434 51.887C10.4434 51.7927 10.3987 51.7374 10.3092 51.7209Z" fill="#E30387"/>
<path d="M13.9314 54.3527C13.866 54.3445 13.7979 54.3466 13.7271 54.3589C13.6818 54.3671 13.6364 54.3705 13.591 54.3692C13.2799 54.3623 13.1378 54.5325 13.1645 54.8797C13.1778 55.0465 13.1044 55.1462 12.9442 55.179C12.7787 55.2132 12.6045 55.2146 12.4216 55.1832C12.4026 55.1799 12.3843 55.1728 12.368 55.1623C12.3517 55.1519 12.3376 55.1382 12.3266 55.1221C12.3156 55.1061 12.3078 55.0879 12.3039 55.0688C12.2999 55.0497 12.2998 55.03 12.3035 55.0109L13.0003 51.1357C13.0125 51.0689 13.0473 51.0087 13.0986 50.9656C13.1498 50.9225 13.2143 50.8992 13.2806 50.8999L14.0976 50.9122C14.187 50.9136 14.2404 50.9594 14.2578 51.0496L15.0067 55.056C15.024 55.1462 14.9873 55.1914 14.8965 55.1914L14.3138 55.1893C14.2311 55.1893 14.1817 55.1476 14.1657 55.0642L14.0595 54.4778C14.0462 54.404 14.0035 54.3623 13.9314 54.3527ZM13.8953 53.4403C13.898 52.9154 13.8246 52.4678 13.6751 52.0973C13.611 51.9374 13.5676 51.9429 13.5449 52.1137L13.3767 53.385C13.3717 53.4224 13.3792 53.4605 13.3982 53.4929C13.4171 53.5253 13.4463 53.5502 13.4809 53.5634C13.565 53.5975 13.6517 53.6119 13.7412 53.6064C13.844 53.6009 13.8953 53.5456 13.8953 53.4403Z" fill="#E30387"/>
<path d="M16.7774 54.341L16.7553 54.9766C16.75 55.1256 16.6746 55.2001 16.5291 55.2001L16.1026 55.2021C15.9691 55.2021 15.903 55.1345 15.9043 54.9991L15.9103 51.0111C15.9103 50.9962 15.9132 50.9813 15.9189 50.9675C15.9246 50.9537 15.9328 50.9412 15.9433 50.9307C15.9537 50.9202 15.9661 50.9119 15.9797 50.9064C15.9933 50.9008 16.0078 50.8981 16.0225 50.8984C16.6412 50.9086 17.4041 50.8041 17.9247 51.1485C18.4213 51.4745 18.3572 52.4321 18.2851 52.9344C18.2398 53.2461 18.0836 53.516 17.8166 53.7443C17.7538 53.7976 17.7405 53.8625 17.7765 53.9391L18.2671 54.9766C18.3405 55.131 18.2932 55.2069 18.125 55.2042L17.6704 55.196C17.6066 55.1948 17.5447 55.1741 17.4925 55.1364C17.4404 55.0987 17.4005 55.0459 17.3781 54.9848C17.2953 54.7565 17.2039 54.5207 17.1037 54.2774C16.9035 53.7935 16.7947 53.8147 16.7774 54.341ZM16.7673 51.8621L16.7633 52.9365C16.7633 52.9769 16.7789 53.0157 16.8066 53.0445C16.8343 53.0733 16.872 53.0897 16.9115 53.0902L17.0256 53.0923C17.1446 53.0928 17.2589 53.0421 17.3433 52.9513C17.4278 52.8606 17.4756 52.7372 17.4762 52.6084L17.4802 52.1983C17.4805 52.1345 17.4691 52.0712 17.4469 52.0122C17.4246 51.9531 17.3918 51.8994 17.3503 51.854C17.3088 51.8087 17.2595 51.7727 17.2052 51.7481C17.1509 51.7234 17.0926 51.7106 17.0337 51.7103L16.9195 51.7083C16.8996 51.708 16.8799 51.7118 16.8614 51.7194C16.843 51.727 16.8262 51.7383 16.812 51.7526C16.7979 51.7669 16.7866 51.7839 16.779 51.8027C16.7713 51.8215 16.7673 51.8417 16.7673 51.8621Z" fill="#E30387"/>
<path d="M19.9784 50.9011L19.4418 50.9002C19.3566 50.9 19.2875 50.9706 19.2873 51.0578L19.2805 55.0437C19.2804 55.1309 19.3493 55.2017 19.4344 55.2019L19.9711 55.2028C20.0562 55.203 20.1254 55.1324 20.1255 55.0452L20.1323 51.0593C20.1325 50.9721 20.0636 50.9013 19.9784 50.9011Z" fill="#E30387"/>
<path d="M21.9733 53.0886L22.0114 54.9872C22.014 55.1198 21.9513 55.1881 21.8231 55.1922L21.3446 55.2066C21.2298 55.2093 21.1724 55.1526 21.1724 55.0364L21.1764 51.0402C21.1764 51.0206 21.1802 51.0011 21.1877 50.9831C21.1953 50.965 21.2063 50.9487 21.2201 50.9351C21.234 50.9215 21.2503 50.9109 21.2683 50.9039C21.2862 50.897 21.3054 50.8938 21.3245 50.8947L21.8171 50.9152C21.9012 50.9179 21.9606 50.9596 21.9953 51.0402L22.56 52.373C22.6454 52.5753 22.7289 52.5739 22.8103 52.3689L23.349 51.0197C23.3837 50.935 23.4451 50.8933 23.5332 50.8947L24.0478 50.9049C24.0816 50.906 24.1137 50.9205 24.1372 50.9454C24.1608 50.9702 24.174 51.0035 24.1739 51.0382L24.1799 54.9667C24.1799 55.1253 24.1025 55.2045 23.9477 55.2045H23.6133C23.4157 55.2032 23.3162 55.1013 23.3149 54.899L23.3069 53.1132C23.3069 53.0888 23.2978 53.0655 23.2814 53.0479C23.2649 53.0303 23.2425 53.0199 23.2188 53.0188C23.1614 53.0161 23.1274 53.0407 23.1167 53.0927C23.0619 53.3483 22.9905 53.5827 22.9024 53.7959C22.7356 54.2005 22.5847 54.1944 22.4499 53.7775C22.3618 53.5014 22.239 53.2587 22.0814 53.0496C22.0067 52.9498 21.9706 52.9628 21.9733 53.0886Z" fill="#E30387"/>
<path d="M27.0493 51.9811C26.9999 52.1601 27.054 52.3248 27.2115 52.4752C27.668 52.9037 28.1967 53.1785 28.2427 53.8982C28.3268 55.2227 27.1935 55.3621 26.2604 55.0935C26.1829 55.0717 26.1416 55.0197 26.1362 54.9377L26.1082 54.4989C26.1068 54.4751 26.1107 54.4513 26.1197 54.4293C26.1287 54.4074 26.1424 54.3879 26.1599 54.3724C26.1774 54.3568 26.1981 54.3458 26.2204 54.34C26.2427 54.3342 26.266 54.3338 26.2884 54.339C26.8344 54.4552 27.1761 54.4162 27.3136 54.2221C27.4605 54.0157 27.4331 53.8216 27.2315 53.6398C26.6188 53.0903 26.0181 52.8033 26.1763 51.7883C26.3305 50.8041 27.2636 50.798 27.9944 50.9969C28.0719 51.0174 28.1112 51.0693 28.1126 51.1527L28.1226 51.6202C28.1229 51.6346 28.1203 51.649 28.115 51.6623C28.1097 51.6757 28.1018 51.6878 28.0919 51.6978C28.0819 51.7078 28.07 51.7155 28.0571 51.7205C28.0441 51.7255 28.0303 51.7277 28.0165 51.7268L27.4358 51.6961C27.3493 51.6914 27.2639 51.7172 27.1936 51.769C27.1233 51.8208 27.0724 51.8956 27.0493 51.9811Z" fill="#E30387"/>
<path d="M31.4644 51.7022L31.134 51.6612C31.0446 51.6502 30.9872 51.6004 30.9618 51.5115C30.9298 51.3912 30.9151 51.2627 30.9178 51.126C30.9205 50.9811 30.9925 50.9087 31.134 50.9087L32.8561 50.9107C32.9071 50.9113 32.9566 50.9291 32.9967 50.9614C33.0369 50.9936 33.0656 51.0385 33.0784 51.0891C33.1211 51.2655 33.0937 51.4254 32.9963 51.5689C32.9509 51.6359 32.8888 51.6755 32.81 51.6878L32.5617 51.7247C32.4696 51.7384 32.4236 51.7931 32.4236 51.8888L32.4156 54.9725C32.4142 55.1188 32.3428 55.194 32.2013 55.1981L31.8229 55.2063C31.6854 55.2104 31.616 55.142 31.6146 55.0012L31.6066 51.8662C31.6066 51.7692 31.5592 51.7145 31.4644 51.7022Z" fill="#E30387"/>
<path d="M34.8804 54.3943L35.7575 54.4107C35.8023 54.4118 35.845 54.4305 35.8767 54.4629C35.9084 54.4954 35.9267 54.5391 35.9277 54.585L35.9357 55.0013C35.9359 55.0247 35.9317 55.0479 35.9232 55.0697C35.9147 55.0914 35.9021 55.1112 35.8861 55.128C35.8701 55.1447 35.851 55.1581 35.83 55.1673C35.809 55.1765 35.7864 55.1814 35.7635 55.1817L34.1015 55.2104C34.0785 55.2107 34.0556 55.2062 34.0342 55.1974C34.0129 55.1886 33.9934 55.1755 33.977 55.1589C33.9606 55.1423 33.9476 55.1225 33.9387 55.1007C33.9299 55.079 33.9253 55.0556 33.9253 55.032V51.0768C33.9253 51.0532 33.9299 51.0299 33.9387 51.0081C33.9476 50.9863 33.9606 50.9666 33.977 50.95C33.9934 50.9334 34.0129 50.9203 34.0342 50.9114C34.0556 50.9026 34.0785 50.8982 34.1015 50.8984L35.7635 50.9149C35.7867 50.9151 35.8096 50.9201 35.8309 50.9296C35.8522 50.9391 35.8715 50.9528 35.8875 50.97C35.9036 50.9872 35.9161 51.0075 35.9244 51.0297C35.9326 51.0519 35.9365 51.0756 35.9357 51.0994L35.9237 51.5218C35.9221 51.5676 35.9034 51.6112 35.8713 51.6432C35.8392 51.6753 35.7963 51.6935 35.7515 51.694L34.9005 51.7083C34.8556 51.7094 34.8129 51.7281 34.7812 51.7605C34.7495 51.793 34.7313 51.8367 34.7303 51.8826L34.7222 52.3624C34.7217 52.3862 34.7258 52.4098 34.7343 52.4319C34.7428 52.4541 34.7556 52.4742 34.7718 52.4912C34.7881 52.5082 34.8074 52.5217 34.8288 52.5309C34.8502 52.5402 34.8732 52.5449 34.8964 52.5449L35.6473 52.5387C35.6706 52.5385 35.6936 52.543 35.7151 52.5519C35.7366 52.5609 35.7561 52.5742 35.7725 52.591C35.789 52.6078 35.8019 52.6278 35.8107 52.6498C35.8194 52.6718 35.8238 52.6954 35.8235 52.7192L35.8195 53.1559C35.819 53.2025 35.8007 53.2471 35.7685 53.28C35.7364 53.313 35.6929 53.3317 35.6473 53.3322L34.9145 53.3363C34.8696 53.3363 34.8265 53.354 34.794 53.3857C34.7616 53.4174 34.7423 53.4607 34.7403 53.5065L34.7102 54.2098C34.7094 54.2334 34.7132 54.2569 34.7214 54.279C34.7295 54.3011 34.7418 54.3213 34.7577 54.3385C34.7735 54.3556 34.7925 54.3694 34.8136 54.379C34.8347 54.3886 34.8574 54.3938 34.8804 54.3943Z" fill="#E30387"/>
<path d="M38.9793 52.4158C39.026 52.6058 39.0788 52.6072 39.1375 52.4199C39.2576 52.0358 39.3564 51.6394 39.4339 51.2307C39.4752 51.0106 39.6054 50.9013 39.8243 50.9027H40.1547C40.3616 50.904 40.4284 51.0038 40.355 51.202C40.12 51.8294 39.8797 52.4876 39.6341 53.1765C39.4258 53.7609 39.4899 54.3637 39.5119 54.9767C39.5173 55.1066 39.4565 55.1743 39.3297 55.1797L38.8752 55.2002C38.715 55.2071 38.6296 55.1278 38.6189 54.9624C38.5748 54.2612 38.689 53.6481 38.4307 52.9592C38.1971 52.3331 37.9741 51.7283 37.7619 51.1446C37.7005 50.9778 37.7565 50.8951 37.9301 50.8965L38.3065 50.9006C38.5068 50.9033 38.6309 51.0038 38.679 51.202L38.9793 52.4158Z" fill="#E30387"/>
<path d="M43.5633 53.9804C43.5631 54.139 43.5323 54.296 43.4728 54.4424C43.4132 54.5888 43.3261 54.7218 43.2164 54.8337C43.1067 54.9457 42.9766 55.0344 42.8334 55.0948C42.6902 55.1553 42.5367 55.1862 42.3819 55.186L42.2257 55.1857C42.0708 55.1854 41.9175 55.1539 41.7745 55.0929C41.6315 55.032 41.5016 54.9428 41.3923 54.8305C41.283 54.7181 41.1964 54.5848 41.1373 54.4382C41.0783 54.2916 41.0481 54.1345 41.0483 53.9759L41.0515 52.1265C41.0518 51.9679 41.0826 51.8109 41.1421 51.6645C41.2016 51.518 41.2887 51.3851 41.3984 51.2731C41.5081 51.1612 41.6383 51.0725 41.7815 51.012C41.9247 50.9516 42.0781 50.9206 42.233 50.9209L42.3892 50.9212C42.544 50.9215 42.6973 50.953 42.8403 51.0139C42.9833 51.0749 43.1132 51.1641 43.2225 51.2764C43.3318 51.3887 43.4185 51.522 43.4775 51.6687C43.5365 51.8153 43.5668 51.9724 43.5665 52.131L43.5633 53.9804ZM42.7357 52.1406C42.7362 52.0878 42.7265 52.0355 42.7071 51.9866C42.6878 51.9376 42.6593 51.8931 42.6232 51.8554C42.5871 51.8178 42.5441 51.7878 42.4966 51.7672C42.4492 51.7465 42.3982 51.7357 42.3467 51.7352L42.3146 51.7349C42.2631 51.7345 42.212 51.7444 42.1642 51.7642C42.1164 51.784 42.0729 51.8132 42.0361 51.8502C41.9994 51.8872 41.9701 51.9312 41.95 51.9798C41.9298 52.0284 41.9192 52.0805 41.9188 52.1333L41.9032 53.9663C41.9027 54.019 41.9124 54.0714 41.9317 54.1203C41.951 54.1692 41.9796 54.2138 42.0157 54.2515C42.0518 54.2891 42.0948 54.3191 42.1423 54.3397C42.1897 54.3603 42.2406 54.3712 42.2922 54.3716L42.3242 54.3719C42.3758 54.3724 42.4269 54.3624 42.4747 54.3427C42.5225 54.3229 42.566 54.2937 42.6027 54.2567C42.6395 54.2197 42.6688 54.1757 42.6889 54.1271C42.709 54.0785 42.7196 54.0263 42.7201 53.9736L42.7357 52.1406Z" fill="#E30387"/>
<path d="M46.3163 52.7208L46.2883 51.185C46.2843 50.9937 46.3757 50.898 46.5626 50.898L46.8169 50.8959C47.0051 50.8946 47.0999 50.9903 47.1012 51.183L47.1253 54.9352C47.1253 55.0678 47.0618 55.1464 46.935 55.171C46.7108 55.2133 46.5119 55.1942 46.3383 55.1136C46.2958 55.0924 46.2629 55.0565 46.2462 55.0131L45.5714 53.2477C45.5514 53.1972 45.516 53.1691 45.4653 53.1637C45.4372 53.1609 45.4172 53.1698 45.4052 53.1903C45.3972 53.204 45.3939 53.2177 45.3952 53.2313C45.4232 53.8369 45.4232 54.426 45.3952 54.9987C45.3885 55.1354 45.3191 55.2038 45.187 55.2038L44.7805 55.2017C44.643 55.2017 44.5742 55.132 44.5742 54.9926L44.5862 51.0518C44.5862 50.9793 44.6203 50.9328 44.6884 50.9123C45.1008 50.7921 45.3792 50.9287 45.5233 51.3224C45.7089 51.8254 45.8951 52.308 46.082 52.77C46.2449 53.1746 46.323 53.1582 46.3163 52.7208Z" fill="#E30387"/>
<path d="M52.1932 51.8942L52.1912 54.9513C52.1899 55.118 52.1078 55.2014 51.9449 55.2014L51.5985 55.2035C51.465 55.2048 51.3976 55.1372 51.3963 55.0005L51.3602 51.8798C51.3597 51.8321 51.3407 51.7865 51.3074 51.7528C51.2741 51.7191 51.2291 51.6999 51.182 51.6994C51.0218 51.6966 50.8796 51.6591 50.7555 51.5866C50.7021 51.5552 50.6741 51.508 50.6714 51.4451C50.6527 51.0733 50.8122 50.8902 51.15 50.8956C51.6532 50.9025 52.1391 50.9086 52.6077 50.9141C52.6451 50.9148 52.6814 50.9268 52.7121 50.9487C52.7428 50.9706 52.7664 51.0014 52.7799 51.0371C52.8466 51.2175 52.838 51.3891 52.7539 51.5517C52.7232 51.6105 52.6758 51.6474 52.6117 51.6625L52.3274 51.724C52.2393 51.7445 52.1945 51.8012 52.1932 51.8942Z" fill="#E30387"/>
<path d="M54.9305 54.3898C55.1561 54.3256 55.2696 54.1738 55.2709 53.9346L55.2889 51.0867C55.2889 50.9636 55.349 50.9028 55.4691 50.9042H55.9097C56.0725 50.9042 56.1546 50.9882 56.156 51.1564C56.156 52.0326 56.1513 52.9559 56.142 53.9264C56.1339 54.8368 55.6701 55.2599 54.7503 55.1956C54.0989 55.1505 53.7571 54.8224 53.7251 54.2114C53.6757 53.256 53.6523 52.2362 53.655 51.1523C53.655 50.9978 53.7297 50.9185 53.8793 50.9144L54.3478 50.9001C54.4826 50.896 54.5507 50.9636 54.5521 51.1031L54.5561 54.031C54.5561 54.0594 54.5629 54.0882 54.5761 54.1151C54.6802 54.3351 54.7983 54.4267 54.9305 54.3898Z" fill="#E30387"/>
<path d="M58.006 54.1888L58.0019 54.9433C58.0015 55.0099 57.9759 55.0736 57.9307 55.1211C57.8855 55.1685 57.8241 55.196 57.7597 55.1976L57.3452 55.2078C57.201 55.2105 57.1289 55.1388 57.1289 54.9925L57.1389 51.0455C57.1403 50.9608 57.1823 50.9157 57.2651 50.9102C57.8197 50.8733 59.2014 50.7954 59.4176 51.5069C59.706 52.4555 59.5845 53.2032 59.0532 53.75C58.9958 53.8074 58.9844 53.8737 59.0192 53.9489L59.4857 54.9638C59.5605 55.1278 59.5091 55.2071 59.3315 55.2017L58.899 55.1894C58.7281 55.1853 58.616 55.0998 58.5626 54.9331C58.4732 54.6597 58.3731 54.3931 58.2623 54.1334C58.0927 53.7315 58.0073 53.75 58.006 54.1888ZM58.6413 51.9876C58.6412 51.9507 58.634 51.9142 58.6201 51.8801C58.6062 51.8461 58.5858 51.8152 58.5603 51.7892C58.5347 51.7632 58.5044 51.7426 58.4711 51.7286C58.4377 51.7146 58.402 51.7075 58.366 51.7076L58.2659 51.708C58.2299 51.7081 58.1942 51.7155 58.161 51.7298C58.1278 51.744 58.0976 51.7648 58.0722 51.791C58.0468 51.8171 58.0267 51.8482 58.013 51.8823C57.9994 51.9164 57.9924 51.953 57.9925 51.9899L57.9953 52.81C57.9955 52.8469 58.0027 52.8834 58.0166 52.9174C58.0305 52.9515 58.0508 52.9824 58.0764 53.0084C58.1019 53.0344 58.1322 53.0549 58.1656 53.0689C58.1989 53.0829 58.2346 53.0901 58.2706 53.09L58.3707 53.0896C58.4068 53.0895 58.4424 53.0821 58.4756 53.0678C58.5089 53.0536 58.5391 53.0328 58.5644 53.0066C58.5898 52.9804 58.6099 52.9494 58.6236 52.9153C58.6373 52.8811 58.6442 52.8446 58.6441 52.8077L58.6413 51.9876Z" fill="#E30387"/>
<path d="M62.3014 51.7025C62.2106 51.6724 62.1131 51.6628 62.009 51.6738C61.8595 51.6888 61.7874 51.6191 61.7928 51.4646L61.8088 51.0812C61.8128 50.9678 61.8702 50.911 61.981 50.911L63.6369 50.9028C63.8185 50.9028 63.9093 50.9965 63.9093 51.1837L63.9113 51.4236C63.9113 51.4586 63.9044 51.4932 63.891 51.5254C63.8776 51.5576 63.8579 51.5866 63.8332 51.6108C63.8085 51.635 63.7792 51.6537 63.7472 51.666C63.7152 51.6782 63.6811 51.6836 63.647 51.682C63.388 51.6697 63.2578 51.7203 63.2565 51.8337C63.2498 52.8138 63.2485 53.8861 63.2525 55.0507C63.2525 55.0895 63.2376 55.1268 63.211 55.1544C63.1844 55.182 63.1482 55.1978 63.1103 55.1984L62.6077 55.2086C62.5023 55.21 62.4495 55.1574 62.4495 55.0507L62.4315 51.885C62.4315 51.792 62.3881 51.7312 62.3014 51.7025Z" fill="#E30387"/>
<path d="M67.4795 53.7958C67.4873 53.9494 67.5509 54.0946 67.6579 54.203C67.7649 54.3114 67.9075 54.3753 68.0581 54.3822L68.5227 54.4027C68.6081 54.4068 68.6689 54.4485 68.7049 54.5278C68.8037 54.7519 68.785 54.9453 68.6489 55.108C68.6048 55.16 68.5494 55.1887 68.4827 55.1941C68.1422 55.2201 67.7812 55.19 67.3994 55.1039C66.5063 54.9009 66.5824 53.2606 66.6144 52.5491C66.6685 51.3066 67.2392 50.6074 68.5307 50.9827C68.5609 50.9912 68.5881 51.0082 68.6093 51.0318C68.6305 51.0553 68.6449 51.0845 68.6509 51.1159C68.6829 51.28 68.6836 51.444 68.6529 51.608C68.6368 51.6887 68.5888 51.7276 68.5087 51.7249C68.0001 51.7044 67.4975 51.6839 67.4735 52.379C67.4561 52.867 67.4581 53.3392 67.4795 53.7958Z" fill="#E30387"/>
<path d="M81.1414 54.5844L81.1754 54.9801C81.1776 55.0051 81.1748 55.0303 81.1671 55.0541C81.1594 55.0779 81.147 55.0998 81.1306 55.1184C81.1143 55.1371 81.0943 55.1521 81.0721 55.1625C81.0498 55.173 81.0257 55.1786 81.0012 55.179L79.5255 55.2139C79.5017 55.2144 79.4781 55.2101 79.456 55.2012C79.434 55.1923 79.4138 55.1789 79.3969 55.1619C79.3799 55.1449 79.3664 55.1246 79.3572 55.1022C79.348 55.0798 79.3433 55.0557 79.3433 55.0314L79.3553 51.0783C79.3552 51.0534 79.3602 51.0288 79.3697 51.006C79.3793 50.9832 79.3933 50.9626 79.411 50.9455C79.4286 50.9284 79.4494 50.9152 79.4722 50.9066C79.495 50.8981 79.5193 50.8944 79.5435 50.8958L80.0401 50.9225C80.0856 50.9251 80.1284 50.9455 80.1597 50.9794C80.191 51.0133 80.2084 51.0583 80.2083 51.1049L80.2363 54.2133C80.2368 54.2603 80.255 54.3053 80.2871 54.3389C80.3192 54.3725 80.3627 54.3922 80.4085 54.3937L80.9712 54.4183C81.0144 54.4202 81.0555 54.438 81.0868 54.4686C81.1182 54.4991 81.1375 54.5403 81.1414 54.5844Z" fill="#E30387"/>
<path d="M82.0548 51.7329L81.7765 51.6755C81.7307 51.6662 81.6881 51.6452 81.6527 51.6143C81.6173 51.5834 81.5903 51.5438 81.5743 51.4992C81.5249 51.3652 81.5175 51.2142 81.5522 51.0461C81.5709 50.9613 81.6223 50.9183 81.7064 50.9169L83.4725 50.8984C83.5124 50.898 83.5512 50.9125 83.5817 50.9392C83.6122 50.966 83.6325 51.0032 83.6387 51.044C83.6654 51.2231 83.6527 51.394 83.6007 51.5566C83.5793 51.6209 83.5366 51.6591 83.4725 51.6714L83.1682 51.7268C83.1305 51.7336 83.0964 51.7537 83.0719 51.7837C83.0473 51.8138 83.0339 51.8517 83.034 51.8908L83.028 54.9992C83.028 55.1291 82.9639 55.1953 82.8358 55.1981L82.4013 55.2083C82.2771 55.2111 82.2144 55.1482 82.213 55.0197L82.189 51.899C82.189 51.8061 82.1443 51.7507 82.0548 51.7329Z" fill="#E30387"/>
<path d="M84.5056 50.9661C84.5056 50.9482 84.5125 50.9309 84.5249 50.9183C84.5373 50.9056 84.5541 50.8984 84.5716 50.8984L85.6129 50.9005C85.793 50.9007 85.9713 50.9391 86.1377 51.0134C86.304 51.0878 86.4551 51.1966 86.5822 51.3337C86.7094 51.4708 86.8102 51.6334 86.8789 51.8124C86.9476 51.9914 86.9828 52.1831 86.9825 52.3768L86.9785 53.7341C86.9779 54.1251 86.8329 54.4998 86.5753 54.7759C86.3177 55.052 85.9686 55.2068 85.6049 55.2063L84.5636 55.2042C84.5461 55.2042 84.5293 55.1971 84.5169 55.1844C84.5045 55.1717 84.4976 55.1545 84.4976 55.1366L84.5056 50.9661ZM85.3786 51.7596L85.3746 54.3677C85.3746 54.3807 85.3797 54.3932 85.3887 54.4025C85.3977 54.4117 85.4099 54.4169 85.4227 54.4169H85.5768C85.6545 54.4171 85.7314 54.3914 85.8033 54.3412C85.8751 54.291 85.9404 54.2173 85.9954 54.1244C86.0505 54.0314 86.0942 53.9211 86.1241 53.7996C86.154 53.6781 86.1694 53.5478 86.1695 53.4163V52.711C86.1698 52.4459 86.108 52.1916 85.9976 52.004C85.8873 51.8164 85.7374 51.7108 85.5808 51.7104H85.4267C85.4139 51.7104 85.4017 51.7156 85.3927 51.7248C85.3837 51.734 85.3786 51.7465 85.3786 51.7596Z" fill="#E30387"/>
<path d="M91.8984 55.3651C92.0012 55.4471 92.0539 55.5585 92.0566 55.6993C92.0579 55.7813 92.0232 55.8408 91.9525 55.8777C91.6815 56.0171 91.4839 56.0656 91.3598 56.0233C91.0501 55.9166 91.0441 55.7991 91.3417 55.6706C91.3978 55.646 91.4519 55.6159 91.5039 55.5804C91.5364 55.5583 91.5614 55.5265 91.5755 55.4894C91.5896 55.4522 91.5921 55.4114 91.5827 55.3725C91.5733 55.3337 91.5525 55.2985 91.523 55.2719C91.4935 55.2453 91.4568 55.2284 91.4178 55.2236L90.745 55.1416C90.5875 55.1225 90.5034 55.0322 90.4927 54.8709L90.4727 54.5962C90.462 54.439 90.5341 54.3631 90.689 54.3686L91.3778 54.3994C91.4512 54.4021 91.5139 54.3768 91.566 54.3235C91.7916 54.0911 91.7956 53.8697 91.578 53.6592C90.9152 53.0174 90.2865 52.716 90.5588 51.5985C90.745 50.8338 91.6962 50.8173 92.2949 50.9834C92.3776 51.0067 92.4244 51.0627 92.4351 51.1516C92.4564 51.3238 92.4464 51.4783 92.405 51.6149C92.381 51.6942 92.3289 51.7325 92.2488 51.7298L91.7542 51.7134C91.6637 51.7106 91.5754 51.7424 91.5065 51.8027C91.4377 51.863 91.3932 51.9474 91.3818 52.0394C91.3631 52.1884 91.4112 52.3162 91.526 52.4228C92.1948 53.0441 92.8976 53.53 92.4731 54.6208C92.369 54.886 92.1868 55.0691 91.9264 55.1703C91.9081 55.1774 91.892 55.1894 91.8797 55.2051C91.8675 55.2207 91.8595 55.2394 91.8566 55.2593C91.8538 55.2791 91.8561 55.2994 91.8635 55.318C91.8708 55.3366 91.8829 55.3528 91.8984 55.3651Z" fill="#E30387"/>
<path d="M94.7999 51.8607L94.7939 54.9485C94.7939 55.1139 94.7124 55.198 94.5496 55.2007L94.1951 55.2048C94.0603 55.2062 93.9922 55.1378 93.9909 54.9998L93.9629 51.8894C93.9629 51.8155 93.9288 51.7643 93.8607 51.7356C93.7633 51.6932 93.6578 51.67 93.5444 51.6659C93.4162 51.6618 93.3501 51.5948 93.3461 51.4649L93.3361 51.1061C93.3321 50.9763 93.3935 50.9113 93.5203 50.9113L95.1843 50.9072C95.3725 50.9072 95.466 51.0029 95.4646 51.1943L95.4626 51.3973C95.46 51.5654 95.3772 51.6611 95.2143 51.6843L94.912 51.7294C94.8372 51.739 94.7999 51.7827 94.7999 51.8607Z" fill="#E30387"/>
<path d="M73.3987 53.9569C73.5081 53.3281 73.6009 52.7 73.677 52.0726C73.6877 51.992 73.7331 51.9503 73.8132 51.9476L74.3158 51.9353C74.4386 51.9312 74.4873 51.9906 74.4619 52.1136L73.8572 55.0539C73.8359 55.1564 73.7738 55.207 73.671 55.2056L73.0282 55.1912C72.9428 55.1885 72.8901 55.1441 72.8701 55.058L72.2413 52.1772C72.2053 52.0159 72.268 51.9353 72.4295 51.9353L72.824 51.9312C72.9655 51.9312 73.0429 52.0029 73.0563 52.1464C73.1123 52.7547 73.1964 53.3589 73.3086 53.959C73.3393 54.123 73.3693 54.1223 73.3987 53.9569Z" fill="#E30387"/>
<path d="M76.0375 54.058C76.0108 54.1468 76.0108 54.2363 76.0375 54.3266C76.0655 54.4236 76.1276 54.4865 76.2237 54.5152C76.5267 54.6027 76.8184 54.6191 77.0987 54.5644C77.1408 54.5561 77.1844 54.5643 77.221 54.5875C77.2577 54.6106 77.2847 54.647 77.297 54.6895L77.321 54.7797C77.3704 54.9615 77.3057 55.0756 77.1268 55.1221C76.3378 55.3271 75.3907 55.1857 75.2866 54.1646C75.2185 53.5064 75.1304 52.2085 75.9574 52.0014C77.323 51.659 77.4752 52.8503 77.4291 53.8283C77.4251 53.9008 77.3878 53.9377 77.317 53.939L76.1516 53.9698C76.0929 53.9712 76.0548 54.0006 76.0375 54.058ZM76.1456 53.3485L76.5141 53.3526C76.5319 53.3529 76.5497 53.3496 76.5663 53.3428C76.5829 53.3361 76.5981 53.326 76.6109 53.3133C76.6238 53.3005 76.634 53.2853 76.6411 53.2685C76.6482 53.2516 76.652 53.2336 76.6522 53.2153V53.1784C76.6546 53.0103 76.6285 52.8486 76.5797 52.7287C76.5309 52.6088 76.4634 52.5405 76.3919 52.5386H76.2918C76.2562 52.5377 76.2207 52.5533 76.1873 52.5846C76.1539 52.6159 76.1233 52.6622 76.0973 52.7208C76.0712 52.7795 76.0502 52.8494 76.0355 52.9265C76.0208 53.0036 76.0126 53.0864 76.0115 53.1702V53.2071C76.0112 53.2254 76.0145 53.2436 76.0211 53.2606C76.0277 53.2776 76.0375 53.2931 76.0499 53.3063C76.0624 53.3194 76.0772 53.3299 76.0937 53.3371C76.1101 53.3444 76.1277 53.3483 76.1456 53.3485Z" fill="#E30387"/>
<path d="M48.6756 54.3922L48.3552 54.3916C48.207 54.3913 48.0867 54.5141 48.0864 54.6659L48.086 54.9201C48.0858 55.0718 48.2057 55.1951 48.3539 55.1953L48.6742 55.1959C48.8224 55.1962 48.9428 55.0734 48.943 54.9216L48.9435 54.6674C48.9437 54.5157 48.8238 54.3924 48.6756 54.3922Z" fill="#E30387"/>
<path d="M61.0458 54.3836L60.6935 54.3943C60.5564 54.3985 60.4486 54.5156 60.4527 54.656L60.4615 54.9593C60.4655 55.0997 60.58 55.2101 60.717 55.2059L61.0693 55.1952C61.2064 55.191 61.3142 55.0739 61.3101 54.9335L61.3013 54.6302C61.2972 54.4898 61.1828 54.3794 61.0458 54.3836Z" fill="#E30387"/>
<path d="M70.2704 54.394H69.8539C69.7456 54.394 69.6577 54.484 69.6577 54.595V55.001C69.6577 55.1119 69.7456 55.2019 69.8539 55.2019H70.2704C70.3788 55.2019 70.4667 55.1119 70.4667 55.001V54.595C70.4667 54.484 70.3788 54.394 70.2704 54.394Z" fill="#E30387"/>
<path d="M88.3874 54.3823L88.067 54.3828C87.9221 54.3831 87.8049 54.5036 87.8051 54.6519L87.8056 54.939C87.8059 55.0873 87.9235 55.2073 88.0684 55.2071L88.3888 55.2065C88.5337 55.2063 88.6509 55.0858 88.6506 54.9374L88.6501 54.6504C88.6499 54.502 88.5323 54.382 88.3874 54.3823Z" fill="#E30387"/>
</g>
<defs>
<clipPath id="clip0_315_8832">
<rect width="109.53" height="57.0004" fill="white" transform="translate(0.235352)"/>
</clipPath>
</defs>
</svg>
