<svg width="47" height="47" viewBox="0 0 47 47" fill="none" xmlns="http://www.w3.org/2000/svg">
<rect x="3.36914" y="4" width="39.4125" height="39.4125" rx="19.7062" fill="#0ABAB5" fill-opacity="0.2"/>
<rect x="3.36914" y="4" width="39.4125" height="39.4125" rx="19.7062" stroke="#0ABAB5" stroke-opacity="0.1" stroke-width="6.56875"/>
<path d="M24.125 17.25H19.75C19.4185 17.25 19.1005 17.3817 18.8661 17.6161C18.6317 17.8505 18.5 18.1685 18.5 18.5V28.5C18.5 28.8315 18.6317 29.1495 18.8661 29.3839C19.1005 29.6183 19.4185 29.75 19.75 29.75H27.25C27.5815 29.75 27.8995 29.6183 28.1339 29.3839C28.3683 29.1495 28.5 28.8315 28.5 28.5V21.625M24.125 17.25L28.5 21.625M24.125 17.25V21.625H28.5" stroke="black" stroke-width="1.25" stroke-linecap="round" stroke-linejoin="round"/>
</svg>
