<svg width="47" height="47" viewBox="0 0 47 47" fill="none" xmlns="http://www.w3.org/2000/svg">
<rect x="3.33398" y="3.33301" width="40" height="40" rx="20" fill="#0ABAB5" fill-opacity="0.2"/>
<rect x="3.33398" y="3.33301" width="40" height="40" rx="20" stroke="#0ABAB5" stroke-opacity="0.1" stroke-width="6.66667"/>
<path d="M31.6672 27.4334V29.9334C31.6681 30.1655 31.6206 30.3952 31.5276 30.6079C31.4346 30.8205 31.2983 31.0114 31.1272 31.1683C30.9562 31.3252 30.7543 31.4446 30.5345 31.519C30.3146 31.5934 30.0817 31.621 29.8505 31.6001C27.2862 31.3214 24.823 30.4452 22.6588 29.0417C20.6454 27.7623 18.9383 26.0552 17.6588 24.0417C16.2505 21.8678 15.374 19.3926 15.1005 16.8167C15.0797 16.5863 15.1071 16.354 15.1809 16.1348C15.2548 15.9155 15.3735 15.714 15.5295 15.5431C15.6855 15.3722 15.8754 15.2357 16.087 15.1422C16.2987 15.0487 16.5275 15.0003 16.7588 15.0001H19.2588C19.6633 14.9961 20.0553 15.1393 20.362 15.403C20.6686 15.6667 20.8689 16.033 20.9255 16.4334C21.031 17.2335 21.2267 18.019 21.5088 18.7751C21.621 19.0734 21.6452 19.3975 21.5788 19.7091C21.5123 20.0208 21.3579 20.3068 21.1338 20.5334L20.0755 21.5917C21.2618 23.678 22.9892 25.4055 25.0755 26.5917L26.1338 25.5334C26.3604 25.3094 26.6465 25.155 26.9581 25.0885C27.2698 25.022 27.5939 25.0463 27.8922 25.1584C28.6482 25.4405 29.4338 25.6362 30.2338 25.7417C30.6387 25.7989 31.0083 26.0028 31.2726 26.3147C31.5369 26.6266 31.6773 27.0247 31.6672 27.4334Z" stroke="black" stroke-width="1.66667" stroke-linecap="round" stroke-linejoin="round"/>
</svg>
