<svg width="26" height="20" viewBox="0 0 26 20" fill="none" xmlns="http://www.w3.org/2000/svg">
<mask id="mask0_315_9041" style="mask-type:luminance" maskUnits="userSpaceOnUse" x="0" y="0" width="26" height="20">
<path d="M24.1429 0.713379H1.85714C0.831471 0.713379 0 1.54485 0 2.57052V17.4277C0 18.4533 0.831471 19.2848 1.85714 19.2848H24.1429C25.1685 19.2848 26 18.4533 26 17.4277V2.57052C26 1.54485 25.1685 0.713379 24.1429 0.713379Z" fill="white"/>
</mask>
<g mask="url(#mask0_315_9041)">
<path d="M24.1431 0.945801H1.85742C0.959959 0.945801 0.232422 1.67334 0.232422 2.5708V17.4279C0.232422 18.3254 0.959959 19.0529 1.85742 19.0529H24.1431C25.0406 19.0529 25.7681 18.3254 25.7681 17.4279V2.5708C25.7681 1.67334 25.0406 0.945801 24.1431 0.945801Z" fill="white" stroke="#F5F5F5" stroke-width="0.464286"/>
<mask id="mask1_315_9041" style="mask-type:alpha" maskUnits="userSpaceOnUse" x="0" y="0" width="27" height="20">
<path d="M24.1431 0.947266H1.85742C0.959959 0.947266 0.232422 1.6748 0.232422 2.57227V17.4294C0.232422 18.3269 0.959959 19.0544 1.85742 19.0544H24.1431C25.0406 19.0544 25.7681 18.3269 25.7681 17.4294V2.57227C25.7681 1.6748 25.0406 0.947266 24.1431 0.947266Z" fill="white" stroke="white" stroke-width="0.464286"/>
</mask>
<g mask="url(#mask1_315_9041)">
<path fill-rule="evenodd" clip-rule="evenodd" d="M0.000488281 13.0957H26.0005V6.90527H0.000488281V13.0957Z" fill="#0C47B7"/>
<path fill-rule="evenodd" clip-rule="evenodd" d="M0.000488281 19.2862H26.0005V13.0957H0.000488281V19.2862Z" fill="#E53B35"/>
</g>
</g>
</svg>
