<svg width="35" height="36" viewBox="0 0 35 36" fill="none" xmlns="http://www.w3.org/2000/svg">
<path d="M25.9897 24.9255L32.1632 31.3485L30.1236 33.471L23.9516 27.0465C21.6551 28.9623 18.7986 30.0044 15.8553 30C8.69446 30 2.88278 23.952 2.88278 16.5C2.88278 9.048 8.69446 3 15.8553 3C23.0161 3 28.8278 9.048 28.8278 16.5C28.832 19.563 27.8307 22.5356 25.9897 24.9255ZM23.0983 23.8125C24.9276 21.8548 25.9491 19.2306 25.945 16.5C25.945 10.698 21.4291 6 15.8553 6C10.28 6 5.76556 10.698 5.76556 16.5C5.76556 22.3005 10.28 27 15.8553 27C18.4792 27.0043 21.0009 25.9412 22.8821 24.0375L23.0983 23.8125Z" fill="#0ABAB5"/>
</svg>
