<svg width="17" height="18" viewBox="0 0 17 18" fill="none" xmlns="http://www.w3.org/2000/svg">
<g clip-path="url(#clip0_501_11278)">
<path fill-rule="evenodd" clip-rule="evenodd" d="M12.1978 11.5779L16.6998 16.0799C16.8581 16.2383 16.9469 16.453 16.9469 16.6769C16.9468 16.9007 16.8578 17.1154 16.6994 17.2736C16.5411 17.4319 16.3263 17.5207 16.1025 17.5207C15.8786 17.5206 15.664 17.4316 15.5057 17.2732L11.0037 12.7712C9.65788 13.8136 7.96549 14.3041 6.27084 14.143C4.57618 13.9819 3.00655 13.1813 1.88125 11.9039C0.755957 10.6266 0.159531 8.9686 0.213305 7.26716C0.267079 5.56571 0.967015 3.94865 2.17072 2.74494C3.37443 1.54123 4.99149 0.841298 6.69294 0.787524C8.39439 0.73375 10.0524 1.33018 11.3297 2.45547C12.607 3.58076 13.4077 5.1504 13.5688 6.84505C13.7299 8.53971 13.2394 10.2321 12.197 11.5779H12.1978ZM6.90503 12.4992C8.23664 12.4992 9.5137 11.9703 10.4553 11.0287C11.3969 10.0871 11.9259 8.81002 11.9259 7.47841C11.9259 6.1468 11.3969 4.86973 10.4553 3.92814C9.5137 2.98656 8.23664 2.45758 6.90503 2.45758C5.57342 2.45758 4.29635 2.98656 3.35476 3.92814C2.41317 4.86973 1.88419 6.1468 1.88419 7.47841C1.88419 8.81002 2.41317 10.0871 3.35476 11.0287C4.29635 11.9703 5.57342 12.4992 6.90503 12.4992Z" fill="#737373"/>
</g>
<defs>
<clipPath id="clip0_501_11278">
<rect width="16.7369" height="16.7367" fill="white" transform="translate(0.209961 0.78418)"/>
</clipPath>
</defs>
</svg>
