<svg width="36" height="36" viewBox="0 0 36 36" fill="none" xmlns="http://www.w3.org/2000/svg">
<path d="M13.9021 30C13.2694 30 12.7279 29.7652 12.2778 29.2956C11.8268 28.8252 11.6014 28.26 11.6014 27.6C11.6014 26.94 11.8268 26.3748 12.2778 25.9044C12.7279 25.4348 13.2694 25.2 13.9021 25.2C14.5347 25.2 15.0762 25.4348 15.5263 25.9044C15.9773 26.3748 16.2027 26.94 16.2027 27.6C16.2027 28.26 15.9773 28.8252 15.5263 29.2956C15.0762 29.7652 14.5347 30 13.9021 30ZM25.4055 30C24.7728 30 24.2314 29.7652 23.7812 29.2956C23.3303 28.8252 23.1048 28.26 23.1048 27.6C23.1048 26.94 23.3303 26.3748 23.7812 25.9044C24.2314 25.4348 24.7728 25.2 25.4055 25.2C26.0382 25.2 26.58 25.4348 27.0309 25.9044C27.4811 26.3748 27.7062 26.94 27.7062 27.6C27.7062 28.26 27.4811 28.8252 27.0309 29.2956C26.58 29.7652 26.0382 30 25.4055 30ZM12.9243 10.8L15.6851 16.8H23.7375L26.9009 10.8H12.9243ZM13.9021 24C13.0393 24 12.3874 23.6048 11.9465 22.8144C11.5055 22.0248 11.4863 21.24 11.889 20.46L13.4419 17.52L9.30068 8.4H8.12158C7.79565 8.4 7.52724 8.2848 7.31634 8.0544C7.10545 7.8248 7 7.54 7 7.2C7 6.86 7.11043 6.5748 7.3313 6.3444C7.5514 6.1148 7.82441 6 8.15034 6H10.0196C10.2305 6 10.4319 6.06 10.6236 6.18C10.8153 6.3 10.9591 6.47 11.055 6.69L11.8314 8.4H28.799C29.3166 8.4 29.6713 8.6 29.8631 9C30.0548 9.4 30.0452 9.82 29.8343 10.26L25.7506 17.94C25.5397 18.34 25.2617 18.65 24.9166 18.87C24.5715 19.09 24.1784 19.2 23.7375 19.2H15.1674L13.9021 21.6H26.5846C26.9105 21.6 27.1789 21.7148 27.3898 21.9444C27.6007 22.1748 27.7062 22.46 27.7062 22.8C27.7062 23.14 27.5957 23.4248 27.3749 23.6544C27.1548 23.8848 26.8818 24 26.5558 24H13.9021ZM15.6851 16.8H23.7375H15.6851Z" fill="#0ABAB5"/>
</svg>
