<svg width="23" height="24" viewBox="0 0 23 24" fill="none" xmlns="http://www.w3.org/2000/svg">
<path d="M6.90205 24C6.26937 24 5.72794 23.7652 5.27777 23.2956C4.82684 22.8252 4.60137 22.26 4.60137 21.6C4.60137 20.94 4.82684 20.3748 5.27777 19.9044C5.72794 19.4348 6.26937 19.2 6.90205 19.2C7.53474 19.2 8.07617 19.4348 8.52634 19.9044C8.97727 20.3748 9.20274 20.94 9.20274 21.6C9.20274 22.26 8.97727 22.8252 8.52634 23.2956C8.07617 23.7652 7.53474 24 6.90205 24ZM18.4055 24C17.7728 24 17.2314 23.7652 16.7812 23.2956C16.3303 22.8252 16.1048 22.26 16.1048 21.6C16.1048 20.94 16.3303 20.3748 16.7812 19.9044C17.2314 19.4348 17.7728 19.2 18.4055 19.2C19.0382 19.2 19.58 19.4348 20.0309 19.9044C20.4811 20.3748 20.7062 20.94 20.7062 21.6C20.7062 22.26 20.4811 22.8252 20.0309 23.2956C19.58 23.7652 19.0382 24 18.4055 24ZM5.92426 4.8L8.68509 10.8H16.7375L19.9009 4.8H5.92426ZM6.90205 18C6.0393 18 5.38744 17.6048 4.94647 16.8144C4.50551 16.0248 4.48634 15.24 4.88896 14.46L6.44192 11.52L2.30068 2.4H1.12158C0.795653 2.4 0.52724 2.2848 0.316344 2.0544C0.105448 1.8248 0 1.54 0 1.2C0 0.86 0.110433 0.5748 0.331299 0.3444C0.551397 0.1148 0.824412 0 1.15034 0H3.01965C3.23054 0 3.43185 0.0600001 3.62358 0.18C3.8153 0.3 3.9591 0.47 4.05496 0.69L4.83144 2.4H21.799C22.3166 2.4 22.6713 2.6 22.8631 3C23.0548 3.4 23.0452 3.82 22.8343 4.26L18.7506 11.94C18.5397 12.34 18.2617 12.65 17.9166 12.87C17.5715 13.09 17.1784 13.2 16.7375 13.2H8.16743L6.90205 15.6H19.5846C19.9105 15.6 20.1789 15.7148 20.3898 15.9444C20.6007 16.1748 20.7062 16.46 20.7062 16.8C20.7062 17.14 20.5957 17.4248 20.3749 17.6544C20.1548 17.8848 19.8818 18 19.5558 18H6.90205ZM8.68509 10.8H16.7375H8.68509Z" fill="#0ABAB5"/>
</svg>
